<?xml version="1.0" encoding="UTF-8"?>
<svg version="1.1" xmlns="http://www.w3.org/2000/svg" width="750" height="731">
<path d="M0 0 C1.44188502 -0.00135289 2.88376959 -0.00329857 4.32565308 -0.00579834 C7.33270657 -0.00872598 10.33964027 -0.00453267 13.34667969 0.00488281 C17.14546174 0.01621551 20.94396182 0.00955227 24.74273396 -0.00199223 C48.10134574 -0.0624307 70.38020691 0.67189415 92.625 8.5625 C95.19909402 9.39285291 97.79285984 9.97662055 100.4296875 10.578125 C106.58866042 12.06477364 112.23969247 14.32031561 118.06640625 16.765625 C120.72828382 17.86834677 123.40654239 18.81067522 126.1484375 19.6953125 C131.09836692 21.31465931 135.84457706 23.31271988 140.6171875 25.390625 C141.97589966 25.98049194 141.97589966 25.98049194 143.36206055 26.58227539 C145.24615416 27.40229118 147.12937042 28.22432564 149.01171875 29.04833984 C151.68690294 30.21428988 154.36984295 31.36041759 157.0546875 32.50390625 C171.32767725 38.65780063 184.06064426 46.21145695 196.47265625 55.57421875 C198.76196038 57.29609106 198.76196038 57.29609106 201.19921875 58.6484375 C204.51528615 60.70668623 207.36046342 63.15169184 210.3046875 65.703125 C211.4187289 66.66078704 212.53330441 67.61782813 213.6484375 68.57421875 C214.4528125 69.26427002 214.4528125 69.26427002 215.2734375 69.96826172 C217.41352589 71.78146799 219.60444838 73.52615024 221.8046875 75.265625 C234.19851633 85.11712997 245.50916926 95.87758828 256.7421875 107.015625 C257.64243652 107.90282227 258.54268555 108.79001953 259.47021484 109.70410156 C264.39680611 114.62424561 268.7729752 119.59660786 272.8046875 125.265625 C274.08711242 126.87718939 275.37748073 128.48250255 276.6796875 130.078125 C280.91097529 135.34319333 284.87393185 140.77412813 288.8046875 146.265625 C289.59598903 147.3596392 290.3876696 148.45337931 291.1796875 149.546875 C301.35518527 163.63294049 310.65840467 177.89885299 318.8046875 193.265625 C319.15192871 193.92014648 319.49916992 194.57466797 319.85693359 195.24902344 C323.31820797 201.83039187 326.37490057 208.42099216 328.79296875 215.4609375 C329.9200562 218.58545019 331.21997398 221.59905262 332.5546875 224.640625 C341.14556863 244.48404564 349.77598715 265.28725299 353.19921875 286.72265625 C353.76200459 290.32135569 353.76200459 290.32135569 354.78125 294.0078125 C365.13798026 334.25706134 364.50858646 391.18387587 352.7734375 430.87890625 C351.75954114 434.4234552 351.01785086 437.96192166 350.3046875 441.578125 C349.27584553 446.52873553 347.88435632 450.92736658 345.88671875 455.55859375 C344.58828558 458.80702042 343.61395806 462.09972851 342.6171875 465.453125 C340.46657046 472.5825079 337.88453013 479.51660931 335.1796875 486.453125 C334.79530518 487.44530029 334.41092285 488.43747559 334.01489258 489.4597168 C333.64388428 490.39984619 333.27287598 491.33997559 332.890625 492.30859375 C332.5611084 493.14414795 332.2315918 493.97970215 331.89208984 494.84057617 C330.71925202 497.45615723 329.29989146 499.82273497 327.8046875 502.265625 C327.16684082 503.81468123 326.5623884 505.37791246 325.9921875 506.953125 C324.21196872 511.52889646 321.96413021 515.54386852 319.37109375 519.703125 C317.76881451 522.32430999 316.31133466 524.99197939 314.8671875 527.703125 C305.28929975 545.31566028 293.47008175 561.58375197 278.8046875 575.265625 C275.4728465 578.57459545 272.17122051 581.91328644 268.86943054 585.25218201 C266.26654667 587.88204506 263.65816027 590.50642316 261.04956055 593.13061523 C259.68153835 594.50870238 258.31531559 595.88857823 256.95092773 597.27026367 C254.96298612 599.28267374 252.96846899 601.28836823 250.97265625 603.29296875 C250.37341843 603.90252914 249.7741806 604.51208954 249.15678406 605.14012146 C245.50700702 608.79084277 241.71527729 611.97291027 237.52737427 614.9934082 C235.34226927 616.60712425 233.43394822 618.43160919 231.4921875 620.328125 C220.06289115 630.73600504 206.78164318 638.79512668 192.8046875 645.265625 C190.6769518 646.34357533 188.55184245 647.42672901 186.4296875 648.515625 C183.30801355 650.11694478 180.21201227 651.50934801 176.91796875 652.703125 C172.89304063 654.17899529 169.16229268 656.03335374 165.3671875 658.015625 C154.85746161 663.38348904 143.96759212 668.13378432 132.69140625 671.65625 C130.77081647 672.27656471 128.92552883 673.00957366 127.0546875 673.765625 C123.64824005 675.07165426 120.24472073 675.87237329 116.6796875 676.640625 C112.04844401 677.65801487 107.73577507 678.95660122 103.3046875 680.640625 C94.7961065 683.80505231 86.02834885 685.72243531 77.18554688 687.71655273 C74.95901253 688.23003466 72.7451221 688.77850049 70.53125 689.34375 C60.60720528 691.79875477 50.70331529 692.55666102 40.52050781 692.92407227 C39.69389648 692.95557373 38.86728516 692.9870752 38.015625 693.01953125 C37.27618652 693.04345947 36.53674805 693.0673877 35.77490234 693.09204102 C33.59239998 693.20763907 33.59239998 693.20763907 30.8046875 694.265625 C29.14096018 694.40192699 27.47301587 694.48988995 25.8046875 694.546875 C24.8353125 694.58425781 23.8659375 694.62164063 22.8671875 694.66015625 C19.8046875 694.765625 19.8046875 694.765625 16.7421875 694.87109375 C15.7728125 694.90847656 14.8034375 694.94585938 13.8046875 694.984375 C12.9178125 695.01466797 12.0309375 695.04496094 11.1171875 695.07617188 C8.64626444 695.18637166 8.64626444 695.18637166 5.8046875 696.265625 C3.55789491 696.37379246 1.30794689 696.41989704 -0.94140625 696.43359375 C-1.61603912 696.43773788 -2.290672 696.44188202 -2.98574829 696.44615173 C-5.20149069 696.45589303 -7.41705179 696.45579448 -9.6328125 696.453125 C-10.39085175 696.45318542 -11.14889099 696.45324585 -11.92990112 696.45330811 C-26.75356658 696.43653771 -41.43137272 695.63901475 -56.1953125 694.265625 C-57.05447266 694.19085937 -57.91363281 694.11609375 -58.79882812 694.0390625 C-73.7388191 692.71542097 -87.51150198 688.66993743 -101.61230469 683.7277832 C-105.81706979 682.27729282 -109.90767312 681.06241348 -114.28515625 680.25390625 C-119.0791507 679.36138983 -123.42976672 677.89655704 -127.9453125 676.078125 C-128.72479248 675.76915283 -129.50427246 675.46018066 -130.30737305 675.1418457 C-136.15122408 672.78335959 -141.77948073 670.10865203 -147.375 667.20703125 C-151.16409341 665.25107298 -155.0260495 663.46494129 -158.89257812 661.66821289 C-170.84268022 656.09668008 -182.57251277 650.16837151 -192.984375 641.984375 C-196.71437038 639.08473195 -200.5620875 636.34238637 -204.390625 633.57470703 C-213.68800935 626.79784755 -222.25182954 619.54052137 -230.34912109 611.37255859 C-231.84635693 609.8643904 -233.35427726 608.36747821 -234.86328125 606.87109375 C-235.82095611 605.91210063 -236.77801221 604.9524891 -237.734375 603.9921875 C-238.59240723 603.13189941 -239.45043945 602.27161133 -240.33447266 601.38525391 C-242.1953125 599.265625 -242.1953125 599.265625 -242.1953125 597.265625 C-243.05769531 596.90984375 -243.05769531 596.90984375 -243.9375 596.546875 C-246.68491472 594.98778845 -248.26472048 593.16255149 -250.3203125 590.765625 C-253.52505617 587.0857134 -256.83286813 583.67460348 -260.3828125 580.328125 C-264.52278989 576.23925844 -267.18255848 572.21525974 -269.78515625 567.0390625 C-273.92380674 558.89933438 -279.36901354 551.49050647 -284.73144531 544.1237793 C-287.05722345 540.91913782 -289.17733431 537.66991508 -291.1953125 534.265625 C-292.28628538 532.69388442 -293.39089644 531.13153699 -294.5078125 529.578125 C-307.77369172 510.65065716 -316.15040124 489.2750976 -323.0078125 467.328125 C-325.55084816 459.2292494 -328.19621176 451.16811506 -330.8984375 443.12109375 C-331.22968628 442.12928101 -331.22968628 442.12928101 -331.56762695 441.11743164 C-332.13130792 439.4544522 -332.72215698 437.80074034 -333.31640625 436.1484375 C-334.2606282 433.05138951 -334.66364223 430.17168433 -335.0078125 426.953125 C-335.94868374 418.91754814 -337.59471188 411.04845896 -339.34301758 403.15307617 C-342.94178959 386.1521721 -343.54269989 369.02292305 -343.4453125 351.703125 C-343.44287537 350.74950073 -343.44043823 349.79587646 -343.43792725 348.81335449 C-343.39137892 333.22064176 -342.81074776 317.78377174 -341.1953125 302.265625 C-341.09114014 301.15840088 -341.09114014 301.15840088 -340.98486328 300.02880859 C-339.12688654 280.3474926 -335.17773509 260.76703229 -328.1953125 242.265625 C-327.94418701 241.58064941 -327.69306152 240.89567383 -327.43432617 240.18994141 C-326.01831667 236.34564927 -324.4994001 232.60220512 -322.7578125 228.890625 C-321.18342486 225.48566238 -319.71462452 222.08444425 -318.3828125 218.578125 C-315.49146803 211.23945148 -311.80922973 204.26800407 -308.1953125 197.265625 C-307.85951172 196.61335937 -307.52371094 195.96109375 -307.17773438 195.2890625 C-300.23300201 181.86167389 -292.40891462 169.18679843 -283.46533203 156.99853516 C-282.17865627 155.24289798 -280.90371915 153.4791068 -279.62890625 151.71484375 C-278.81850683 150.60618671 -278.00734183 149.49808878 -277.1953125 148.390625 C-276.4734375 147.40320313 -275.7515625 146.41578125 -275.0078125 145.3984375 C-274.4096875 144.69460937 -273.8115625 143.99078125 -273.1953125 143.265625 C-272.5353125 143.265625 -271.8753125 143.265625 -271.1953125 143.265625 C-270.96118652 142.54181641 -270.72706055 141.81800781 -270.48583984 141.07226562 C-268.96676792 137.76858594 -267.14875541 135.89319018 -264.546875 133.359375 C-263.62390625 132.45058594 -262.7009375 131.54179687 -261.75 130.60546875 C-260.77385758 129.65842099 -259.79729134 128.71180988 -258.8203125 127.765625 C-256.91293758 125.90478697 -255.01077054 124.03884416 -253.109375 122.171875 C-252.2632666 121.35009766 -251.4171582 120.52832031 -250.54541016 119.68164062 C-248.24923287 117.32105779 -246.22658206 114.85441676 -244.1953125 112.265625 C-243.10128783 111.25196707 -241.97543778 110.27156443 -240.8203125 109.328125 C-237.97589005 106.91841617 -235.30951788 104.39987655 -232.703125 101.73828125 C-232.0848584 101.10720459 -231.4665918 100.47612793 -230.82958984 99.82592773 C-229.58647331 98.54914816 -228.34964997 97.26620689 -227.11962891 95.97680664 C-226.54132324 95.38375732 -225.96301758 94.79070801 -225.3671875 94.1796875 C-224.8525293 93.6429541 -224.33787109 93.1062207 -223.80761719 92.55322266 C-222.1953125 91.265625 -222.1953125 91.265625 -220.05957031 90.77099609 C-219.44436523 90.60422363 -218.82916016 90.43745117 -218.1953125 90.265625 C-217.7003125 88.780625 -217.7003125 88.780625 -217.1953125 87.265625 C-215.49633789 85.75097656 -215.49633789 85.75097656 -213.29296875 84.15625 C-212.08858154 83.27670654 -212.08858154 83.27670654 -210.85986328 82.37939453 C-210.00118652 81.76435059 -209.14250977 81.14930664 -208.2578125 80.515625 C-207.38624512 79.88382324 -206.51467773 79.25202148 -205.61669922 78.60107422 C-203.1480926 76.81524424 -200.67248886 75.03953745 -198.1953125 73.265625 C-196.69677734 72.17894531 -196.69677734 72.17894531 -195.16796875 71.0703125 C-185.32069035 64.02483877 -174.88780239 57.92558603 -164.1953125 52.265625 C-162.73432225 51.4831714 -161.27338955 50.70061034 -159.8125 49.91796875 C-142.0798828 40.45852658 -124.01240291 32.43879584 -105.2578125 25.203125 C-104.18080078 24.78224609 -103.10378906 24.36136719 -101.99414062 23.92773438 C-95.47813345 21.412579 -88.93702451 19.2317966 -82.24536133 17.234375 C-79.48144644 16.35650625 -76.8455611 15.35646102 -74.171875 14.23828125 C-68.44341801 11.87318414 -62.55583063 10.28176681 -56.5703125 8.703125 C-54.85497314 8.24643433 -54.85497314 8.24643433 -53.10498047 7.78051758 C-44.51398127 5.52991608 -35.96160844 3.67807393 -27.1953125 2.265625 C-26.38425049 2.10481949 -25.57318848 1.94401398 -24.73754883 1.77833557 C-16.46340604 0.21577039 -8.39970091 -0.02828448 0 0 Z M-113.86621094 65.09765625 C-118.37381171 67.40235938 -122.93760665 69.50312968 -127.57836914 71.52563477 C-153.37062327 82.78370842 -175.93485092 99.49851706 -197.7578125 117.078125 C-198.40041016 117.59294434 -199.04300781 118.10776367 -199.70507812 118.63818359 C-203.50278313 121.73051549 -206.98204931 125.00109228 -210.40722656 128.49902344 C-212.20615015 130.27633243 -214.06928426 131.92784501 -215.98828125 133.57421875 C-229.33808138 145.11191605 -241.91988353 157.90135751 -252.1953125 172.265625 C-252.91976562 173.2453125 -253.64421875 174.225 -254.390625 175.234375 C-264.73067239 189.61408248 -273.62044242 205.22154966 -281.21533203 221.21142578 C-282.29556657 223.47577391 -283.39927328 225.72792852 -284.50390625 227.98046875 C-288.53863618 236.27146264 -292.20985822 244.48335307 -295.15234375 253.23046875 C-296.05527063 255.85808742 -297.07756082 258.35028028 -298.1953125 260.890625 C-304.64925339 276.98659806 -306.9477386 294.8294443 -309.64306641 311.84130859 C-310.12165432 314.8088922 -310.64116709 317.76482722 -311.17578125 320.72265625 C-317.43674651 357.89801683 -313.40351577 397.01603551 -304.1953125 433.265625 C-303.96424805 434.17828125 -303.73318359 435.0909375 -303.49511719 436.03125 C-299.76562495 450.28762089 -294.38115399 463.97918198 -289.0703125 477.703125 C-288.54609711 479.06537201 -288.54609711 479.06537201 -288.0112915 480.45513916 C-286.99654512 483.08213942 -285.96931226 485.70388064 -284.9375 488.32421875 C-284.63551697 489.10674515 -284.33353394 489.88927155 -284.0223999 490.69551086 C-282.1891326 495.29645344 -280.03039672 499.38650064 -277.28796387 503.51373291 C-275.69849947 506.06218541 -274.77913881 508.74129677 -273.8203125 511.578125 C-269.89216702 522.17555176 -263.39383458 530.66774048 -256.1953125 539.265625 C-255.7720166 539.77383789 -255.3487207 540.28205078 -254.91259766 540.80566406 C-249.55209756 547.2351712 -244.10259659 553.56807138 -238.4609375 559.75390625 C-237.23936022 561.10817209 -236.02366936 562.46843647 -234.84545898 563.8605957 C-229.4150312 570.23661618 -223.49942329 576.11276836 -217.57104492 582.02026367 C-215.76170317 583.82424585 -213.95776931 585.63351165 -212.15429688 587.44335938 C-206.33658512 593.26457686 -200.48718444 598.95242608 -194.1953125 604.265625 C-192.82246094 605.49539063 -192.82246094 605.49539063 -191.421875 606.75 C-177.86311515 618.557929 -162.65491551 626.37182936 -146.07470703 633.08251953 C-143.05459154 634.3234454 -140.05982033 635.6140141 -137.06640625 636.91796875 C-125.72533409 641.84494189 -114.30284685 646.50090629 -102.6953125 650.765625 C-101.6117749 651.17482178 -100.5282373 651.58401855 -99.41186523 652.00561523 C-90.14557248 655.33306622 -80.89440715 656.86607115 -71.1953125 658.265625 C-69.46524682 658.52384376 -67.73526818 658.78264634 -66.00537109 659.04199219 C-61.47297315 659.71558774 -56.93734174 660.36354996 -52.3996582 661.00048828 C-49.63069845 661.39092309 -46.86325354 661.79111949 -44.09570312 662.19140625 C-27.75325622 664.51700905 -11.83819404 665.58984093 4.6796875 665.015625 C5.38268982 664.99262329 6.08569214 664.96962158 6.80999756 664.94592285 C32.44499332 664.0750369 57.3930813 660.75160686 82.0078125 653.3671875 C88.12217618 651.59326717 94.29367795 650.03782729 100.4609375 648.45922852 C103.24598585 647.74156887 106.02644795 647.00918911 108.8046875 646.265625 C109.64322266 646.04277832 110.48175781 645.81993164 111.34570312 645.59033203 C117.81867486 643.77028769 123.74661288 641.1617165 129.8046875 638.265625 C130.701875 637.84619629 131.5990625 637.42676758 132.5234375 636.99462891 C154.27087655 626.8200458 175.21018262 615.61102262 195.8046875 603.265625 C196.55250488 602.81767578 197.30032227 602.36972656 198.07080078 601.90820312 C206.05980121 597.07809404 213.03439048 591.70158637 219.8046875 585.265625 C221.06928011 584.15431635 222.33991013 583.04983093 223.6171875 581.953125 C229.46099524 576.84563703 235.15624906 571.58695159 240.8046875 566.265625 C241.40764648 565.70343262 242.01060547 565.14124023 242.63183594 564.56201172 C255.7467643 552.25942078 266.12964616 538.23129382 275.89453125 523.1796875 C277.27135128 521.07926267 278.67041728 519.02422762 280.12109375 516.9765625 C298.88094414 490.22929363 311.96389041 457.42627766 318.36694336 425.44067383 C318.66931348 423.93826704 318.98338007 422.43818373 319.30688477 420.94018555 C320.70096213 414.35400884 321.52582944 407.76867703 322.2421875 401.078125 C323.66692452 387.84949322 323.66692452 387.84949322 324.734375 381.546875 C327.21261642 366.56386828 326.56786989 352.3069894 325.16943359 337.21875 C324.81157061 333.34022432 324.48863098 329.45987797 324.16796875 325.578125 C322.89735801 311.09014403 320.74911637 297.26298667 316.8046875 283.265625 C316.58973633 282.47526855 316.37478516 281.68491211 316.15332031 280.87060547 C308.03801486 251.18120323 296.14898552 222.90373967 280.8046875 196.265625 C280.3209668 195.41935547 279.83724609 194.57308594 279.33886719 193.70117188 C272.92595539 182.53466276 266.02944821 172.0213789 258.07666016 161.89160156 C256.9840972 160.49496638 255.9136254 159.08109934 254.84765625 157.6640625 C250.99207847 152.55339031 246.77690697 147.83428978 242.4296875 143.13671875 C240.49494063 141.02058936 238.62337028 138.88504741 236.76171875 136.70703125 C232.11704938 131.38220913 227.12708088 126.40196448 222.13256836 121.40820312 C220.47285152 119.74626312 218.82134293 118.0764289 217.16992188 116.40625 C216.11507136 115.34847143 215.0597504 114.29116175 214.00390625 113.234375 C213.5112175 112.73450073 213.01852875 112.23462646 212.51091003 111.71960449 C210.11303122 109.03820344 210.11303122 109.03820344 206.8046875 108.265625 C206.8046875 107.605625 206.8046875 106.945625 206.8046875 106.265625 C204.82154948 104.53305296 202.83274391 102.92274347 200.7421875 101.328125 C200.10804932 100.83940918 199.47391113 100.35069336 198.82055664 99.84716797 C196.82079651 98.31259992 194.81294596 96.78904655 192.8046875 95.265625 C192.21171875 94.80945801 191.61875 94.35329102 191.0078125 93.88330078 C180.82213502 86.05764936 170.08006367 79.27148049 159.08251953 72.64746094 C157.26622655 71.54561546 155.4677611 70.41439845 153.67578125 69.2734375 C129.88541178 54.45320734 101.70475641 46.29759322 74.8046875 39.265625 C74.09586426 39.07983887 73.38704102 38.89405273 72.65673828 38.70263672 C13.76359697 23.65648939 -60.62261255 37.72871646 -113.86621094 65.09765625 Z " fill="#0A0A0A" transform="translate(364.1953125,19.734375)"/>
<path d="M0 0 C2.33732001 1.93278385 3.3658459 3.31155292 5 6 C5.07881783 10.33498078 4.05383381 13.09522526 1.8125 16.6875 C-0.34032385 19.70945252 -0.34032385 19.70945252 0.57495117 22.08422852 C2.4586321 24.61656435 3.98792002 25.03609111 6.98828125 25.96484375 C7.99850342 26.28718994 9.00872559 26.60953613 10.04956055 26.94165039 C11.12633057 27.27028076 12.20310059 27.59891113 13.3125 27.9375 C15.51361218 28.64138264 17.71413962 29.34709658 19.9140625 30.0546875 C20.97141602 30.39081055 22.02876953 30.72693359 23.11816406 31.07324219 C36.93455168 35.51639768 49.97639831 41.39188024 61 51 C61.68320312 51.5775 62.36640625 52.155 63.0703125 52.75 C66.22574442 55.61160628 67.81911823 57.45735469 69.1875 61.5625 C68.94866598 65.9411237 67.82359291 67.66960836 65 71 C63.90579385 71.82586511 62.80145442 72.63847195 61.6875 73.4375 C58.63147166 75.75563065 58.63147166 75.75563065 58.875 79.25 C59.7771981 82.25732701 60.78445614 84.7539662 62.125 87.5625 C63.95158471 91.42008864 64.36125123 93.81153469 63 98 C62 99 62 99 59.1875 99.4375 C54.2583537 99.42739929 50.48301006 96.77194531 46.35546875 94.3125 C35.67195839 90.13361818 25.24370416 95.21494151 15.0625 98.8125 C11.90948272 99.90796111 8.75385418 100.99577199 5.59765625 102.08203125 C4.84255768 102.34267365 4.08745911 102.60331604 3.30947876 102.87185669 C-30.96781513 114.62376143 -77.06057764 109.11792736 -110.86328125 97.16015625 C-113.41217936 95.77620243 -114.56589162 94.51203298 -116 92 C-115.77861795 87.79374114 -115.34955038 85.52432557 -113 82 C-107.13870476 79.52738244 -103.08390531 80.20249036 -97.1875 81.75 C-95.58998479 82.13730098 -93.99232945 82.52402441 -92.39453125 82.91015625 C-91.25491943 83.19463623 -91.25491943 83.19463623 -90.09228516 83.48486328 C-77.25609802 86.64523141 -64.12115154 88.48238002 -51 86 C-50.505 84.515 -50.505 84.515 -50 83 C-51.15339546 81.12933066 -51.15339546 81.12933066 -52.9375 79.3125 C-53.58976562 78.60738281 -54.24203125 77.90226562 -54.9140625 77.17578125 C-55.60242188 76.45777344 -56.29078125 75.73976563 -57 75 C-57.62648438 74.33355469 -58.25296875 73.66710937 -58.8984375 72.98046875 C-62.46720114 69.28789087 -66.21538564 65.82932677 -70.125 62.5 C-70.91132813 61.8296875 -71.69765625 61.159375 -72.5078125 60.46875 C-75.7269017 58.57160652 -77.30237011 58.44580977 -81 59 C-83.72871571 60.14375547 -86.21831164 61.6004741 -88.75 63.125 C-89.45302246 63.53371338 -90.15604492 63.94242676 -90.88037109 64.36352539 C-94.82797648 66.66803177 -98.72704622 69.05015141 -102.625 71.4375 C-109.36906776 75.47720781 -114.2895738 76.65988342 -122 75 C-125.49368334 73.86190619 -128.36226913 72.63773087 -131 70 C-131.4375 67.1875 -131.4375 67.1875 -131 64 C-126.89481807 59.51294069 -122.23859996 55.56278648 -117.71875 51.5 C-112.40241264 47.03792097 -112.40241264 47.03792097 -109.125 41.1875 C-108.89061576 37.86112924 -108.89061576 37.86112924 -109.625 34.0625 C-110.25210215 29.6134645 -109.32020864 26.91535207 -107 23 C-101.08113424 17.02302476 -94.19791501 13.95322933 -86.5625 10.625 C-85.92672028 10.34408508 -85.29094055 10.06317017 -84.63589478 9.77374268 C-23.90050242 -17.00612672 -23.90050242 -17.00612672 0 0 Z M-46 47 C-47.02036991 50.04351715 -47.29185914 52.8063875 -47 56 C-44.98856037 59.50139491 -42.89251607 61.81062009 -39 63 C-34.85857672 63.32868439 -31.96643088 63.28187567 -28 62.125 C-25.58136541 59.55520075 -25.59529482 58.5187156 -25.4375 55.0625 C-25.6173123 51.81168281 -25.8173152 50.29229567 -27.5625 47.5 C-33.46787364 43.86592391 -40.46059476 42.05944938 -46 47 Z M0 53 C-1.84103345 55.48456113 -1.84103345 55.48456113 -3.33203125 58.40234375 C-4.18764648 59.98499023 -4.18764648 59.98499023 -5.06054688 61.59960938 C-5.63869141 62.70111328 -6.21683594 63.80261719 -6.8125 64.9375 C-7.40998047 66.03513672 -8.00746094 67.13277344 -8.62304688 68.26367188 C-12.02379909 74.29195137 -12.02379909 74.29195137 -13 81 C-1.89662187 81.74022521 7.16969416 77.51501863 17.0625 72.9375 C18.17044922 72.42703125 18.17044922 72.42703125 19.30078125 71.90625 C19.996875 71.57496094 20.69296875 71.24367188 21.41015625 70.90234375 C22.03027588 70.60835693 22.65039551 70.31437012 23.28930664 70.01147461 C25.21792595 68.87114782 26.56152671 67.71794503 28 66 C28.66721536 63.08559301 28.66721536 63.08559301 28 60 C23.29107114 54.00681781 17.80360826 50.99107603 10.375 50.0625 C5.85156018 49.60237933 3.68816571 50.35401112 0 53 Z " fill="#0E0E0E" transform="translate(562,264)"/>
<path d="M0 0 C1.22211182 0.22558594 2.44422363 0.45117188 3.70336914 0.68359375 C7.45033495 1.38183131 11.19412355 2.0952925 14.9375 2.8125 C16.07026367 3.02600098 17.20302734 3.23950195 18.37011719 3.45947266 C38.71552529 7.3231002 59.80335625 12.27379238 73.9375 28.8125 C75.25 32.5625 75.25 32.5625 74.9375 35.8125 C73.97317924 37.50006133 72.97539581 39.16916496 71.9375 40.8125 C72.092249 44.20039783 72.62071764 45.49747754 75.046875 47.91015625 C75.91828125 48.55855469 76.7896875 49.20695312 77.6875 49.875 C78.54859375 50.52597656 79.4096875 51.17695313 80.296875 51.84765625 C81.16828125 52.49605469 82.0396875 53.14445312 82.9375 53.8125 C84.6449998 55.09312485 86.32333167 56.41607021 87.9375 57.8125 C87.9375 58.4725 87.9375 59.1325 87.9375 59.8125 C88.5975 59.8125 89.2575 59.8125 89.9375 59.8125 C92.1875 62.5 92.1875 62.5 93.9375 65.8125 C93.36904008 69.30446808 92.43459777 70.43631791 89.625 72.5625 C86.93268969 73.81473735 84.87848606 74.46238261 81.9375 74.8125 C80.4215625 74.998125 80.4215625 74.998125 78.875 75.1875 C72.37003984 74.56797998 66.82686877 71.61345098 60.94238281 68.88867188 C59.53985667 68.24014274 58.13511052 67.59639475 56.72827148 66.95727539 C55.35751238 66.33339304 53.99205525 65.69768529 52.63305664 65.04858398 C48.21948075 63.038766 44.75954944 62.04141909 39.9375 62.8125 C37.73830354 64.59294536 36.12931632 66.14407291 34.3125 68.25 C25.90893699 77.28938532 16.2281928 83.74060865 4.9375 88.8125 C4.9375 89.4725 4.9375 90.1325 4.9375 90.8125 C23.29831445 96.05844699 45.39923333 92.76065786 62.87890625 85.8359375 C67.59357957 84.25835843 72.04535487 83.88556724 76.9375 84.8125 C79.6875 86.5 79.6875 86.5 80.9375 88.8125 C80.9375 92.0263321 80.29381118 93.39620818 78.20874023 95.83227539 C75.71136047 98.00966412 73.71714601 98.91377789 70.59765625 99.99609375 C69.54416992 100.36412109 68.49068359 100.73214844 67.40527344 101.11132812 C66.2815332 101.48708984 65.15779297 101.86285156 64 102.25 C62.26991699 102.8387793 62.26991699 102.8387793 60.50488281 103.43945312 C22.3920556 116.13323813 -15.16683033 117.64930755 -51.484375 99.6171875 C-63.56067906 93.20590488 -63.56067906 93.20590488 -76.7578125 93.6328125 C-78.6170345 94.33196284 -80.4653126 95.06098881 -82.30078125 95.8203125 C-86.48382628 97.32313207 -90.64753519 97.6209614 -95.0625 97.8125 C-97.0625 94.8125 -97.0625 94.8125 -96.9375 92.125 C-96.18980919 89.29445622 -95.36336577 87.35000995 -94 84.8125 C-92.16953672 81.29237831 -91.34691272 78.83767843 -92.0625 74.8125 C-94.0202378 71.83963889 -96.11785627 69.76469231 -98.8125 67.4375 C-101.0625 64.8125 -101.0625 64.8125 -101.625 61.375 C-100.51936859 54.37266773 -96.26759323 50.6556821 -90.77197266 46.63793945 C-82.20313541 40.86489962 -73.08159626 37.61266478 -63.125 35.125 C-61.50948242 34.70250977 -61.50948242 34.70250977 -59.86132812 34.27148438 C-53.25196606 32.55882502 -46.62078304 31.03169213 -39.93530273 29.64526367 C-36.92690758 28.77319468 -34.66448876 27.53570105 -32.0625 25.8125 C-32.495625 25.090625 -32.92875 24.36875 -33.375 23.625 C-33.931875 22.696875 -34.48875 21.76875 -35.0625 20.8125 C-35.619375 20.008125 -36.17625 19.20375 -36.75 18.375 C-38.44284833 15.06991517 -38.7119421 13.4926719 -38.0625 9.8125 C-34.84652235 4.17381919 -31.13911524 0.05813243 -24.8125 -1.875 C-16.2541132 -2.84754395 -8.40185505 -1.57901235 0 0 Z M-8.9375 52.0625 C-10.84347884 55.02735598 -10.469031 57.38602447 -10.0625 60.8125 C-7.81044145 65.14979795 -5.6238976 67.94647371 -1.0625 69.8125 C4.05098022 70.51054031 4.05098022 70.51054031 8.71484375 68.79296875 C12.40266622 65.80844739 14.74572123 63.26453927 15.375 58.5 C14.79536696 53.61452153 13.4196128 52.21363343 9.9375 48.8125 C2.54134992 46.34711664 -2.63918153 47.86362102 -8.9375 52.0625 Z M-61.0625 61.8125 C-62.21724612 64.25060155 -62.21724612 64.25060155 -62.0625 66.8125 C-57.45176854 75.90509154 -47.29792136 78.69282562 -38.3125 82.1875 C-37.40129395 82.54561768 -36.49008789 82.90373535 -35.55126953 83.27270508 C-28.99560606 85.79434783 -28.99560606 85.79434783 -22.0625 85.8125 C-20.41165509 84.33972756 -20.41165509 84.33972756 -19.0625 82.8125 C-20.83021661 79.17775687 -22.6086665 75.54848736 -24.39697266 71.92382812 C-25.00309456 70.6915419 -25.60632933 69.45783101 -26.20654297 68.22265625 C-27.07268371 66.44153764 -27.95029494 64.66601163 -28.828125 62.890625 C-29.35180664 61.82231445 -29.87548828 60.75400391 -30.41503906 59.65332031 C-32.04461141 56.84334642 -33.58119113 54.89625789 -36.0625 52.8125 C-46.04128682 50.87376427 -54.71490098 53.9260891 -61.0625 61.8125 Z " fill="#080808" transform="translate(213.0625,268.1875)"/>
<path d="M0 0 C13.8484007 7.75426382 25.02927254 21.9078818 30 37 C32.0999186 46.88144617 33.55428706 57.00270458 28 66 C25.47171826 68.9105824 24.4077302 69.88674161 20.625 70.9375 C16.28356827 71.01235227 14.55240703 70.49424323 11 68 C7.3331214 63.99802806 4.64133842 59.43158212 1.9375 54.75 C-1.22700143 49.43233265 -4.05118944 46.38967893 -10.0625 44.5625 C-20.43170991 42.76066663 -31.23273286 48.53048218 -40.625 52.3125 C-57.86599344 59.09371513 -75.49064587 63.24471102 -93.82421875 65.88867188 C-99.24644902 66.67710842 -104.58694843 67.70877926 -109.94897461 68.83496094 C-141.17209497 75.37287929 -173.47821883 78.28840516 -205 72 C-205.89235352 71.82839355 -206.78470703 71.65678711 -207.70410156 71.47998047 C-231.43782647 66.85475613 -254.23951627 59.79844352 -276.92578125 51.55078125 C-281.45356584 49.90983507 -285.98571923 48.28792088 -290.54296875 46.73046875 C-291.45457764 46.41875732 -292.36618652 46.1070459 -293.30541992 45.78588867 C-298.70085486 44.21228126 -303.77258737 43.88464705 -309.375 43.9375 C-310.62023437 43.94652344 -311.86546875 43.95554687 -313.1484375 43.96484375 C-314.08945312 43.97644531 -315.03046875 43.98804688 -316 44 C-316.37511719 45.2065625 -316.37511719 45.2065625 -316.7578125 46.4375 C-318.25431711 50.72936228 -320.03182945 54.84772731 -321.875 59 C-322.38353516 60.17175781 -322.38353516 60.17175781 -322.90234375 61.3671875 C-327.77410369 72.37032591 -327.77410369 72.37032591 -331.96875 75.44140625 C-335.92745605 76.53005041 -339.44605571 74.7539799 -343 73 C-345.3125 70.75 -345.3125 70.75 -347 68 C-348.0828125 66.3603125 -348.0828125 66.3603125 -349.1875 64.6875 C-353.20487079 57.30379479 -352.16062425 49.81992433 -350 42 C-346.00509494 30.41296767 -336.27480676 22.14808462 -327.703125 13.8203125 C-326.00222463 12.0023777 -324.7140602 10.15584094 -323.375 8.0625 C-321 5 -321 5 -318.1875 3.6875 C-312.4512748 4.24987502 -308.76571093 8.1823564 -304.875 12.1875 C-303.13482974 14.79775539 -301.74810745 17.40234331 -300.3125 20.1875 C-293.14872234 33.52756717 -282.13151458 42.36422199 -267.8203125 47.0625 C-258.06942294 49.45535633 -248.20701387 49.16550019 -238.25 48.5625 C-234.83389828 48.36284846 -231.41743053 48.17551044 -228 48 C-226.95859863 47.94569824 -225.91719727 47.89139648 -224.84423828 47.83544922 C-206.8829281 47.02647493 -191.18310868 49.08562728 -173.859375 53.37109375 C-164.00000982 55.79731479 -156.89211308 57.03505766 -147.896698 51.76860046 C-140.79099381 47.72926981 -134.39096034 47.07266468 -126.3203125 46.70703125 C-124.34986666 46.58939005 -122.37942114 46.4717432 -120.40899467 46.35377789 C-117.67301104 46.19548891 -114.93614991 46.05735136 -112.19909668 45.91900635 C-107.41744456 45.67346509 -102.63748595 45.39718858 -97.8576355 45.11906433 C-95.32256827 44.97357367 -92.78702235 44.83611202 -90.25100708 44.70820618 C-70.15418603 43.61062189 -45.61005149 40.55380534 -31.3125 25.1875 C-27.97746857 21.27806948 -24.81233079 17.24718144 -21.68359375 13.171875 C-10.0659389 -1.81516931 -10.0659389 -1.81516931 0 0 Z " fill="#0C0C0C" transform="translate(534,483)"/>
<path d="M0 0 C2.24031435 1.79740163 2.71656003 3.70841171 3.69921875 6.36328125 C-4.12484904 15.28918673 -11.75313908 20.25528259 -22.48828125 25.05078125 C-23.88085347 25.69416702 -25.27228683 26.34002325 -26.66259766 26.98828125 C-29.35496901 28.24175343 -32.05164724 29.48500566 -34.75244141 30.72021484 C-38.95089019 32.6643156 -43.06809737 34.73638626 -47.17578125 36.86328125 C-58.76627129 42.75128137 -70.95353294 47.34674342 -83.14453125 51.82421875 C-86.07480234 52.90061622 -88.98705654 54.01585175 -91.89453125 55.15234375 C-112.27237223 63.0456124 -131.47964375 65.36987833 -153.30078125 66.36328125 C-154.29158691 66.42064453 -155.28239258 66.47800781 -156.30322266 66.53710938 C-193.03567446 68.58536326 -228.18606606 52.46714821 -260.30078125 36.36328125 C-261.60499023 35.71311035 -261.60499023 35.71311035 -262.93554688 35.04980469 C-290.62836124 21.16127916 -290.62836124 21.16127916 -295.30078125 13.36328125 C-295.11328125 10.67578125 -295.11328125 10.67578125 -294.30078125 8.36328125 C-287.96828812 5.19703469 -279.26345522 7.75875512 -272.80078125 9.55078125 C-271.38212769 9.93085327 -271.38212769 9.93085327 -269.93481445 10.31860352 C-258.44366285 13.4755133 -247.09082081 17.11228625 -235.71807861 20.66653442 C-197.69493727 32.56955216 -197.69493727 32.56955216 -158.30078125 37.36328125 C-157.31078125 37.40453125 -156.32078125 37.44578125 -155.30078125 37.48828125 C-132.1967052 38.01337389 -111.42885521 32.49797689 -89.9921875 24.4765625 C-84.18848648 22.30581975 -78.34488783 20.26119899 -72.48828125 18.23828125 C-70.54947271 17.56642487 -68.61067048 16.8945503 -66.671875 16.22265625 C-65.29491455 15.74602539 -65.29491455 15.74602539 -63.89013672 15.25976562 C-51.32446042 10.90928822 -38.84031512 6.36759297 -26.38769531 1.70166016 C-25.26975586 1.2844873 -24.15181641 0.86731445 -23 0.4375 C-21.99799561 0.06197998 -20.99599121 -0.31354004 -19.96362305 -0.70043945 C-12.6768622 -3.26253057 -7.03222057 -3.35722907 0 0 Z " fill="#0D0D0D" transform="translate(521.30078125,547.63671875)"/>
<path d="M0 0 C2.3736892 1.26102239 3.98392405 2.58734353 5.359375 4.91796875 C8.75811292 16.29545116 0.88331628 35.73870554 -3.31640625 46.40625 C-6.75424637 51.83022049 -10.05811571 54.05353304 -16.1875 55.50390625 C-18.12152506 55.89519061 -20.05925989 56.26851127 -22 56.625 C-32.29386929 58.48141967 -32.29386929 58.48141967 -40.46875 64.67578125 C-42.81035079 68.53410074 -44.54916633 72.39274622 -46.12768555 76.62890625 C-51.00891949 89.66679216 -51.00891949 89.66679216 -57 93.0625 C-60.64420831 94.20267895 -64.20862855 94.68939832 -68 95.0625 C-69.37503334 95.27061315 -70.75003698 95.47892277 -72.125 95.6875 C-83.54054054 96.79222973 -83.54054054 96.79222973 -88.25 94.4375 C-93.97847209 89.49018319 -97.28035272 84.05852792 -100.625 77.375 C-101.38276154 75.86843694 -102.14560762 74.36441812 -102.9140625 72.86328125 C-103.2435791 72.20497314 -103.5730957 71.54666504 -103.91259766 70.8684082 C-106.58351821 66.4326652 -109.69840011 65.18587578 -114.46875 63.67578125 C-117.03320985 63.05445379 -119.43266145 62.79951089 -122.0625 62.625 C-130.63557892 61.8973467 -136.04284146 57.83644942 -141.88671875 51.6796875 C-150.76744086 40.681381 -152.16480849 28.79299243 -152.36328125 15.12890625 C-151.97131767 11.82039649 -151.23973898 10.46770782 -149 8.0625 C-145.24612693 8.6177086 -143.75392714 10.03434579 -141.3125 12.875 C-140.27609375 14.07962891 -140.27609375 14.07962891 -139.21875 15.30859375 C-136.0464798 19.24600658 -133.09355629 23.33231249 -130.17578125 27.4609375 C-127.15191715 31.0765452 -124.77300423 32.83911087 -120.0546875 33.43359375 C-119.00539063 33.45550781 -117.95609375 33.47742188 -116.875 33.5 C-104.86979493 34.24440392 -97.17791329 38.25761335 -89 47.0625 C-87.58569628 48.88162254 -86.18909905 50.71468051 -84.8125 52.5625 C-82.33301379 55.73763365 -81.25614433 56.94814985 -77.5 58.625 C-71.54611882 57.66812624 -68.25805922 53.50615313 -64.2890625 49.2109375 C-57.01891733 41.46294241 -48.70204966 38.06880733 -38.1875 37.6875 C-37.48818359 37.66945313 -36.78886719 37.65140625 -36.06835938 37.6328125 C-30.67966204 37.39085041 -26.65127401 36.19981546 -22.34765625 32.73046875 C-16.60162906 26.11118514 -13.26805966 17.91188723 -9.5859375 10.0390625 C-8.95558594 8.72035156 -8.95558594 8.72035156 -8.3125 7.375 C-7.95800781 6.60800781 -7.60351562 5.84101563 -7.23828125 5.05078125 C-5.46316615 2.20051757 -3.46467297 0.10827103 0 0 Z " fill="#0A0A0A" transform="translate(447,425.9375)"/>
<path d="M0 0 C26.41802512 -0.86380464 54.36693621 11.25357166 73.8671875 28.71875 C75.45065815 30.21860504 77.03399057 31.71860603 78.6171875 33.21875 C80.40849592 34.7608329 82.20016046 36.30250225 83.9921875 37.84375 C88.97322879 42.36271356 92.63675324 46.28931611 93.1796875 53.28125 C92.44936641 58.39349765 91.57729085 59.9327068 87.6171875 63.21875 C82.53904235 63.00543235 79.3536884 61.81806076 75.2421875 58.90625 C74.20578125 58.18179688 73.169375 57.45734375 72.1015625 56.7109375 C71.54275391 56.31100586 70.98394531 55.91107422 70.40820312 55.49902344 C68.51326059 54.14445982 66.60564155 52.80932858 64.6953125 51.4765625 C58.76751293 47.32808007 52.86159106 43.15655689 47.0546875 38.83984375 C29.79075339 26.0445693 12.0030439 14.95899705 -10.453125 17.44824219 C-19.98873164 18.95744229 -27.55662261 22.5074041 -35.53076172 27.96923828 C-39.21479475 30.4547222 -42.99601881 32.79089387 -46.7578125 35.15625 C-47.56758545 35.66728271 -48.3773584 36.17831543 -49.21166992 36.70483398 C-51.60050377 38.21194617 -53.99135453 39.71580601 -56.3828125 41.21875 C-57.45692383 41.89599121 -57.45692383 41.89599121 -58.55273438 42.58691406 C-79.23397361 55.56894078 -79.23397361 55.56894078 -90.3828125 53.21875 C-93.20316379 51.49239148 -93.73081272 50.30248293 -95.3828125 47.21875 C-96.12396435 42.03068704 -95.77508989 38.5801081 -92.82421875 34.06640625 C-76.10042801 12.62913519 -44.66485788 4.68246323 -18.76171875 1.4765625 C-12.51791924 0.7878718 -6.26650843 0.40522456 0 0 Z " fill="#101010" transform="translate(525.3828125,216.78125)"/>
<path d="M0 0 C2.7885208 0.39473426 5.57935914 0.76768518 8.37109375 1.13891602 C30.77948815 4.21571532 53.84359467 8.30296739 69.19140625 26.48852539 C71.98888568 30.61675025 72.13246622 34.66855992 72.125 39.47680664 C71.58867262 42.24058378 70.97245361 43.0797369 68.69140625 44.71118164 C66.2734375 45.51196289 66.2734375 45.51196289 63.50390625 46.02368164 C62.60285156 46.20543945 61.70179688 46.38719727 60.7734375 46.57446289 C51.6993897 46.97698719 44.8578509 42.25632384 37.31640625 37.77368164 C36.15861344 37.09673322 35.00032347 36.42063442 33.84155273 35.74536133 C28.63692252 32.70113594 23.47244135 29.60008815 18.375 26.37915039 C17.58464355 25.88213623 16.79428711 25.38512207 15.97998047 24.87304688 C14.55749146 23.97084749 13.14281436 23.05613152 11.73876953 22.12548828 C2.5148149 16.24761386 -7.06346017 15.21752372 -17.80859375 15.33618164 C-18.85917969 15.32458008 -19.90976563 15.31297852 -20.9921875 15.30102539 C-36.53210335 15.35865178 -48.62524093 21.26714866 -61.30859375 29.71118164 C-62.22253906 30.31961914 -63.13648438 30.92805664 -64.078125 31.55493164 C-66.02592485 32.85524125 -67.9724884 34.15740423 -69.91796875 35.46118164 C-74.6932017 38.64467028 -79.52204299 41.74610693 -84.34619141 44.85473633 C-85.03245605 45.29720703 -85.7187207 45.73967773 -86.42578125 46.19555664 C-87.08457275 46.61998047 -87.74336426 47.0444043 -88.42211914 47.48168945 C-90.18665463 48.63170896 -91.93038635 49.80793304 -93.671875 50.99243164 C-96.47074213 52.81687836 -98.009032 53.40424566 -101.30859375 53.71118164 C-102.03691406 53.78594727 -102.76523438 53.86071289 -103.515625 53.93774414 C-105.87558567 54.08262056 -107.97547483 54.09778709 -110.30859375 53.71118164 C-113.16015394 50.94603236 -113.29341508 48.80377154 -113.93359375 44.89868164 C-113.67355033 39.32335069 -110.10939034 36.43279497 -106.30859375 32.71118164 C-105.46296875 31.81915039 -104.61734375 30.92711914 -103.74609375 30.00805664 C-76.80333225 1.99370804 -37.09867563 -5.28552932 0 0 Z " fill="#0A0A0A" transform="translate(237.30859375,228.288818359375)"/>
<path d="M0 0 C8.92704152 7.64641839 7.8996641 23.3372598 8.96456909 34.28631592 C10.43404939 49.22244487 12.07344133 63.53961271 16.94042969 77.81713867 C18.26773702 81.76483316 19.08374644 84.32248375 18.56640625 88.5078125 C17 91 17 91 14.31640625 92.3046875 C4.11029527 94.44448462 -5.96507696 95.19114153 -16.375 95.25 C-17.75764038 95.26377686 -17.75764038 95.26377686 -19.16821289 95.27783203 C-20.02793701 95.27380371 -20.88766113 95.26977539 -21.7734375 95.265625 C-22.92465088 95.26224121 -22.92465088 95.26224121 -24.09912109 95.25878906 C-26 95 -26 95 -28 93 C-28.66184562 85.65873872 -26.86323845 78.81728327 -25.25 71.6875 C-24.97704102 70.43710937 -24.70408203 69.18671875 -24.42285156 67.8984375 C-23.25642583 62.56228021 -22.06764559 57.2343508 -20.78125 51.92578125 C-18.25107303 41.21315126 -17.2888324 30.69864169 -16.85839844 19.69140625 C-16.5158876 12.77073021 -15.82240444 7.8550079 -12 2 C-8.23839129 -0.71912664 -4.39540883 -1.7819225 0 0 Z " fill="#060606" transform="translate(377,341)"/>
<path d="M0 0 C3.02704797 1.78518214 3.88845774 3.29969645 5.4375 6.4375 C6.63013918 15.01982511 5.19218837 21.30546745 0.4375 28.4375 C-1.9375 29 -1.9375 29 -4.5625 28.4375 C-8.28844343 23.94445056 -11.62683228 18.46111696 -11.5 12.5 C-8.49311901 2.67752209 -8.49311901 2.67752209 -4.5859375 0.16796875 C-2.5625 -0.5625 -2.5625 -0.5625 0 0 Z " fill="#060606" transform="translate(349.5625,267.5625)"/>
<path d="M0 0 C4.51955843 2.03380129 7.47190666 4.7241894 10 9 C11.05679612 13.12372191 10.72501277 16.47541642 8.8984375 20.31640625 C7.44024358 22.69982847 5.98268656 25.01731344 4 27 C1.8125 27.5 1.8125 27.5 -1 27 C-5.02020235 23.92459341 -7.2854643 20.45626269 -8 15.4375 C-8.1660847 11.5245445 -7.84383308 8.52733284 -6 5 C-4.10521329 3.10018733 -2.17030825 1.60414088 0 0 Z " fill="#0D0D0D" transform="translate(388,267)"/>
<path d="M0 0 C0 3 0 3 -1.31347656 4.59057617 C-2.21791504 5.4332605 -2.21791504 5.4332605 -3.140625 6.29296875 C-3.79933594 6.92396484 -4.45804688 7.55496094 -5.13671875 8.20507812 C-6.52751841 9.50975618 -7.92068871 10.81191246 -9.31640625 12.11132812 C-13.80601141 16.42222085 -16.52896429 20.27458479 -19 26 C-20.32 25.34 -21.64 24.68 -23 24 C-15.70145063 15.62018405 -7.90434298 7.8031494 0 0 Z " fill="#303030" transform="translate(116,137)"/>
<path d="M0 0 C0.66 0.66 1.32 1.32 2 2 C-4.25012173 7.76776422 -10.489297 13.52509066 -17 19 C-17.33 18.34 -17.66 17.68 -18 17 C-17.30777344 16.41605469 -17.30777344 16.41605469 -16.6015625 15.8203125 C-10.77863353 10.8259426 -5.37292078 5.47201153 0 0 Z " fill="#2F2F2F" transform="translate(135,118)"/>
<path d="M0 0 C0.33 0.66 0.66 1.32 1 2 C0.67 2.66 0.34 3.32 0 4 C-0.66 4 -1.32 4 -2 4 C-1.67 4.99 -1.34 5.98 -1 7 C-1.33 7.66 -1.66 8.32 -2 9 C-4.5625 9.625 -4.5625 9.625 -7 10 C-7.33 9.34 -7.66 8.68 -8 8 C-7.04578192 6.85073734 -6.08647955 5.70569459 -5.125 4.5625 C-4.59132813 3.92441406 -4.05765625 3.28632813 -3.5078125 2.62890625 C-2 1 -2 1 0 0 Z " fill="#1D1D1D" transform="translate(461,282)"/>
<path d="M0 0 C1.2065625 0.0309375 1.2065625 0.0309375 2.4375 0.0625 C1.7775 2.3725 1.1175 4.6825 0.4375 7.0625 C-2.2025 5.4125 -4.8425 3.7625 -7.5625 2.0625 C-6.2425 1.7325 -4.9225 1.4025 -3.5625 1.0625 C-2.5625 0.0625 -2.5625 0.0625 0 0 Z " fill="#111111" transform="translate(533.5625,525.9375)"/>
<path d="M0 0 C0.66 0 1.32 0 2 0 C1.38461538 5.53846154 1.38461538 5.53846154 -0.5625 7.875 C-1.2740625 8.431875 -1.2740625 8.431875 -2 9 C-2.99 8.67 -3.98 8.34 -5 8 C-4.21718695 6.66144944 -3.42348123 5.32926356 -2.625 4 C-2.18414062 3.2575 -1.74328125 2.515 -1.2890625 1.75 C-0.86367187 1.1725 -0.43828125 0.595 0 0 Z " fill="#1D1D1D" transform="translate(123,347)"/>
<path d="M0 0 C1.32 1.32 2.64 2.64 4 4 C2.03533587 5.06775224 0.03144641 6.06553465 -2 7 C-2.66 6.67 -3.32 6.34 -4 6 C-2.84826645 3.53199953 -1.95216435 1.95216435 0 0 Z " fill="#1B1B1B" transform="translate(478,246)"/>
<path d="M0 0 C4.62 0 9.24 0 14 0 C10.83759418 2.10827055 9.49342531 2.33817465 5.8125 2.625 C4.46091797 2.73714844 4.46091797 2.73714844 3.08203125 2.8515625 C2.05142578 2.92503906 2.05142578 2.92503906 1 3 C0.67 2.01 0.34 1.02 0 0 Z " fill="#2A2A2A" transform="translate(117,363)"/>
<path d="M0 0 C0.66 0 1.32 0 2 0 C1.37240135 2.92879371 0.41377341 5.36095629 -1 8 C-2.32 7.34 -3.64 6.68 -5 6 C-3.38405168 3.95880212 -1.7143618 1.95927063 0 0 Z " fill="#292929" transform="translate(98,155)"/>
<path d="M0 0 C0 4.38968456 -2.12805101 5.76905739 -5 9 C-5.66 8.01 -6.32 7.02 -7 6 C-4.69 4.02 -2.38 2.04 0 0 Z " fill="#1B1B1B" transform="translate(121,316)"/>
<path d="M0 0 C0 3 0 3 -2 6 C-1.34 6 -0.68 6 0 6 C-0.66 7.32 -1.32 8.64 -2 10 C-2.99 9.01 -3.98 8.02 -5 7 C-3.47793991 4.37098712 -2.15634036 2.15634036 0 0 Z " fill="#202020" transform="translate(504,506)"/>
<path d="M0 0 C1.33855056 0.78281305 2.67073644 1.57651877 4 2.375 C5.11375 3.03628906 5.11375 3.03628906 6.25 3.7109375 C6.8275 4.13632812 7.405 4.56171875 8 5 C8 5.66 8 6.32 8 7 C4.08788267 5.84414715 1.1254959 4.64465038 -2 2 C-1.34 1.34 -0.68 0.68 0 0 Z " fill="#121212" transform="translate(162,364)"/>
<path d="M0 0 C0.66 0.99 1.32 1.98 2 3 C-2.75 7.875 -2.75 7.875 -5 9 C-5.33 7.68 -5.66 6.36 -6 5 C-4.02 3.35 -2.04 1.7 0 0 Z " fill="#1B1B1B" transform="translate(439,320)"/>
<path d="M0 0 C0.33 0 0.66 0 1 0 C1 2.97 1 5.94 1 9 C-0.65 9.66 -2.3 10.32 -4 11 C-3.52269162 9.5410574 -3.04308958 8.08286504 -2.5625 6.625 C-2.29566406 5.81289063 -2.02882813 5.00078125 -1.75390625 4.1640625 C-1 2 -1 2 0 0 Z " fill="#202020" transform="translate(438,434)"/>
<path d="M0 0 C-0.75 1.9375 -0.75 1.9375 -2 4 C-4.0625 4.625 -4.0625 4.625 -6 5 C-6.33 5.66 -6.66 6.32 -7 7 C-7.99 6.67 -8.98 6.34 -10 6 C-7.35570758 3.077361 -4.105808 0 0 0 Z " fill="#202020" transform="translate(452,236)"/>
<path d="M0 0 C0.625 1.875 0.625 1.875 1 4 C-1 6 -1 6 -4.125 6.125 C-5.548125 6.063125 -5.548125 6.063125 -7 6 C-2.25 1.125 -2.25 1.125 0 0 Z " fill="#1D1D1D" transform="translate(165,94)"/>
<path d="M0 0 C0.3449145 1.33038449 0.67516582 2.66457061 1 4 C1.226875 4.86625 1.45375 5.7325 1.6875 6.625 C1.8421875 7.800625 1.8421875 7.800625 2 9 C1.34 9.66 0.68 10.32 0 11 C-0.19491452 9.54263913 -0.38069358 8.08405407 -0.5625 6.625 C-0.66691406 5.81289063 -0.77132812 5.00078125 -0.87890625 4.1640625 C-1 2 -1 2 0 0 Z " fill="#1B1B1B" transform="translate(176,276)"/>
<path d="M0 0 C-3.42094242 2.28062828 -4.68187222 2.21925007 -8.6875 2.125 C-10.17830078 2.09792969 -10.17830078 2.09792969 -11.69921875 2.0703125 C-12.45847656 2.04710937 -13.21773438 2.02390625 -14 2 C-14 1.67 -14 1.34 -14 1 C-12.41913952 0.63495397 -10.83516093 0.28339494 -9.25 -0.0625 C-8.36828125 -0.25972656 -7.4865625 -0.45695313 -6.578125 -0.66015625 C-4.01320972 -0.99825872 -2.42908361 -0.81158635 0 0 Z " fill="#313131" transform="translate(427,679)"/>
<path d="M0 0 C-0.66 1.65 -1.32 3.3 -2 5 C-3.65 3.35 -5.3 1.7 -7 0 C-2.25 -1.125 -2.25 -1.125 0 0 Z " fill="#1F1F1F" transform="translate(118,606)"/>
<path d="M0 0 C1.32 1.65 2.64 3.3 4 5 C3.01 5.66 2.02 6.32 1 7 C0.01 5.35 -0.98 3.7 -2 2 C-1.34 1.34 -0.68 0.68 0 0 Z " fill="#202020" transform="translate(98,546)"/>
<path d="M0 0 C1.32 0 2.64 0 4 0 C4.33 1.65 4.66 3.3 5 5 C2.69 4.34 0.38 3.68 -2 3 C-1.34 2.01 -0.68 1.02 0 0 Z " fill="#1A1A1A" transform="translate(451,357)"/>
<path d="M0 0 C2 2 2 2 2 5 C-0.31 5 -2.62 5 -5 5 C-3.35 3.35 -1.7 1.7 0 0 Z " fill="#232323" transform="translate(451,310)"/>
<path d="M0 0 C-0.33 0.99 -0.66 1.98 -1 3 C-2.175625 2.9690625 -2.175625 2.9690625 -3.375 2.9375 C-5.98114961 2.81315937 -5.98114961 2.81315937 -8 4 C-8.66 3.34 -9.32 2.68 -10 2 C-8.7090864 1.66376204 -7.41723903 1.33110751 -6.125 1 C-5.40570313 0.814375 -4.68640625 0.62875 -3.9453125 0.4375 C-2 0 -2 0 0 0 Z M-10 4 C-9.34 4 -8.68 4 -8 4 C-8 4.66 -8 5.32 -8 6 C-8.66 6 -9.32 6 -10 6 C-10 5.34 -10 4.68 -10 4 Z " fill="#1B1B1B" transform="translate(170,299)"/>
<path d="M0 0 C2.475 0.495 2.475 0.495 5 1 C5.33 1.99 5.66 2.98 6 4 C8.00016466 5.20882096 8.00016466 5.20882096 10 6 C6.62972148 6 5.93297304 5.50175992 3.3125 3.5625 C2.68988281 3.11003906 2.06726563 2.65757812 1.42578125 2.19140625 C0.95527344 1.79824219 0.48476562 1.40507813 0 1 C0 0.67 0 0.34 0 0 Z " fill="#2E2E2E" transform="translate(158,651)"/>
<path d="M0 0 C1.32 0 2.64 0 4 0 C4 0.99 4 1.98 4 3 C4.66 3 5.32 3 6 3 C6 3.66 6 4.32 6 5 C6.66 5 7.32 5 8 5 C7.67 5.99 7.34 6.98 7 8 C6.7525 7.38125 6.505 6.7625 6.25 6.125 C4.77753937 3.62181694 3.58971163 3.16954719 1 2 C0.67 1.34 0.34 0.68 0 0 Z " fill="#393939" transform="translate(117,613)"/>
<path d="M0 0 C0.99 0.66 1.98 1.32 3 2 C1.35 3.98 -0.3 5.96 -2 8 C-2.66 7.67 -3.32 7.34 -4 7 C-2.68 4.69 -1.36 2.38 0 0 Z " fill="#252525" transform="translate(67,197)"/>
<path d="M0 0 C1.32 0.33 2.64 0.66 4 1 C4.33 2.32 4.66 3.64 5 5 C2 5 2 5 0 4 C0 2.68 0 1.36 0 0 Z " fill="#101010" transform="translate(153,610)"/>
<path d="M0 0 C1.32 0.33 2.64 0.66 4 1 C2.6875 3 2.6875 3 1 5 C0.01 5 -0.98 5 -2 5 C-1.34 3.35 -0.68 1.7 0 0 Z " fill="#191919" transform="translate(117,180)"/>
<path d="M0 0 C1.65 0 3.3 0 5 0 C5.33 1.98 5.66 3.96 6 6 C3.97945196 4.35830472 1.97956942 2.69088222 0 1 C0 0.67 0 0.34 0 0 Z " fill="#343434" transform="translate(140,636)"/>
<path d="M0 0 C1.65 1.65 3.3 3.3 5 5 C4.01 5.33 3.02 5.66 2 6 C1.01 5.34 0.02 4.68 -1 4 C-0.67 2.68 -0.34 1.36 0 0 Z " fill="#1B1B1B" transform="translate(138,593)"/>
<path d="M0 0 C0.66 0.33 1.32 0.66 2 1 C1.34 2.98 0.68 4.96 0 7 C-0.99 7 -1.98 7 -3 7 C-2.01 4.69 -1.02 2.38 0 0 Z " fill="#191919" transform="translate(54,221)"/>
<path d="M0 0 C1.32 0 2.64 0 4 0 C4 0.66 4 1.32 4 2 C3.34 2 2.68 2 2 2 C2 2.66 2 3.32 2 4 C0.35 4.33 -1.3 4.66 -3 5 C-1.75 2.5 -1.75 2.5 0 0 Z " fill="#202020" transform="translate(83,174)"/>
</svg>
