<?xml version="1.0" standalone="no"?>
<!DOCTYPE svg PUBLIC "-//W3C//DTD SVG 20010904//EN"
 "http://www.w3.org/TR/2001/REC-SVG-20010904/DTD/svg10.dtd">
<svg version="1.0" xmlns="http://www.w3.org/2000/svg"
 width="1024.000000pt" height="1536.000000pt" viewBox="0 0 1024.000000 1536.000000"
 preserveAspectRatio="xMidYMid meet">

<g transform="translate(0.000000,1536.000000) scale(0.100000,-0.100000)"
fill="#000000" stroke="none">
<path d="M6043 12704 c10 -11 14 -24 10 -27 -3 -4 -1 -7 5 -7 7 0 12 -11 12
-25 0 -14 -4 -25 -10 -25 -5 0 -10 -7 -10 -15 0 -23 -39 -38 -87 -32 -62 7
-101 51 -81 90 5 10 7 21 4 24 -11 11 -36 -66 -36 -108 0 -33 6 -47 33 -74 39
-39 72 -50 122 -41 48 9 84 44 90 86 l5 35 -11 -31 c-9 -25 -17 -31 -36 -30
l-24 1 25 22 c19 16 26 32 27 60 1 34 2 35 9 13 l8 -25 1 28 c1 19 -10 39 -36
65 -20 20 -29 28 -20 16z"/>
<path d="M4740 12376 c-77 -22 -170 -84 -170 -112 0 -16 40 -74 50 -74 4 0 28
17 55 38 45 35 52 37 119 37 66 0 71 -2 74 -22 5 -36 -39 -73 -87 -73 -44 0
-71 -26 -71 -66 0 -19 7 -22 65 -29 74 -8 102 -26 111 -71 8 -39 -18 -68 -73
-83 -63 -18 -111 -13 -151 14 -20 14 -40 25 -44 25 -15 0 -88 -103 -88 -125 0
-18 12 -28 62 -50 56 -25 69 -27 143 -22 193 14 325 115 325 251 0 43 -4 53
-40 89 l-41 40 25 26 c58 60 55 149 -6 193 -27 18 -47 23 -123 25 -52 1 -109
-3 -135 -11z m143 -13 c-18 -2 -48 -2 -65 0 -18 2 -4 4 32 4 36 0 50 -2 33 -4z
m-208 -43 c-9 -15 -45 -32 -45 -22 0 5 10 14 23 20 29 14 29 14 22 2z m301
-226 c19 -15 19 -15 -1 -6 -11 5 -27 12 -35 15 -13 5 -13 6 1 6 8 1 24 -6 35
-15z"/>
<path d="M5553 12103 l-43 -4 0 -147 c0 -81 -5 -230 -10 -331 -9 -182 -10
-185 -38 -220 -61 -76 -103 -86 -532 -126 -91 -9 -263 -27 -383 -40 -275 -32
-345 -32 -381 -4 -35 27 -56 70 -55 111 1 37 4 30 14 -24 7 -42 34 -54 30 -14
-2 14 -5 29 -8 33 -3 4 -6 31 -8 58 -2 38 1 49 11 47 11 -3 11 0 1 12 -7 8
-10 20 -6 26 3 5 3 16 -2 23 -4 6 -13 32 -19 57 -11 42 -12 38 -15 -70 -2 -78
-5 -35 -9 132 -3 135 -8 250 -13 254 -16 16 -25 -14 -31 -101 -4 -49 -13 -142
-21 -205 -8 -63 -21 -189 -30 -280 -48 -517 -53 -542 -108 -584 -57 -43 -123
-57 -422 -86 -110 -11 -251 -25 -313 -32 -89 -9 -115 -9 -125 1 -9 10 -9 11 3
7 8 -3 31 -1 50 3 32 8 33 9 8 10 -18 1 -28 7 -28 16 0 8 -9 15 -19 15 -15 0
-21 10 -26 40 -7 40 -22 60 -34 44 -3 -5 -18 -9 -33 -9 -26 1 -27 0 -13 -20 9
-11 31 -51 50 -90 35 -72 33 -62 145 -645 22 -118 56 -289 76 -379 19 -90 42
-220 50 -288 15 -116 15 -127 -1 -170 -10 -26 -40 -67 -71 -98 -46 -47 -91
-72 -376 -213 -553 -274 -674 -329 -760 -345 -52 -9 -64 -8 -93 7 -18 10 -38
15 -43 12 -14 -9 -93 24 -86 35 3 5 -3 9 -12 9 -10 0 -34 15 -54 32 -32 30
-31 29 5 -10 44 -48 110 -86 168 -96 20 -4 37 -8 37 -9 0 -2 -9 -28 -20 -60
-11 -31 -20 -62 -20 -69 1 -16 40 30 40 47 0 6 9 22 20 35 11 12 17 26 15 30
-6 9 123 26 131 17 3 -3 1 -14 -5 -25 -5 -10 -23 -55 -40 -100 -22 -61 -26
-82 -16 -86 15 -5 8 -51 -13 -83 -8 -13 -12 -36 -10 -52 2 -17 2 -28 -2 -26
-12 8 -33 -145 -26 -197 10 -83 36 -200 52 -235 36 -81 60 -173 34 -133 -5 8
-10 10 -10 5 0 -6 9 -18 20 -28 11 -9 20 -23 20 -32 0 -8 8 -29 18 -47 27 -47
35 -85 19 -91 -8 -4 -6 -6 4 -6 9 -1 16 -8 16 -16 0 -27 -22 -16 -41 20 -33
61 -29 30 5 -36 84 -168 206 -335 384 -529 118 -129 190 -213 173 -204 -36 20
-262 222 -307 274 -136 159 -253 332 -336 498 -94 189 -185 453 -185 536 0 16
-7 38 -17 48 -9 11 -11 18 -5 18 7 0 12 18 12 46 0 57 39 247 52 255 6 4 6 9
-2 14 -6 4 -14 5 -17 1 -9 -8 -40 -173 -54 -280 -22 -180 7 -525 55 -654 8
-20 29 -75 46 -122 50 -134 203 -416 220 -405 4 3 7 -2 6 -10 -2 -26 149 -218
280 -354 153 -160 329 -308 505 -426 71 -47 131 -85 134 -85 3 0 23 -11 45
-25 22 -14 40 -22 40 -18 0 3 10 -3 23 -14 43 -39 117 -74 140 -68 15 4 18 3
8 -3 -10 -7 2 -17 45 -37 121 -56 203 -85 220 -78 11 4 15 3 11 -4 -4 -7 20
-21 61 -37 68 -27 320 -96 349 -96 27 0 6 12 -44 26 -27 7 -38 13 -25 13 12 1
55 -8 94 -19 40 -11 79 -20 88 -19 8 0 -58 20 -146 44 -331 88 -488 142 -658
226 -65 32 -123 56 -129 52 -6 -3 -7 -1 -3 5 7 12 -23 32 -40 25 -6 -2 -17 3
-24 12 -7 8 -18 15 -26 15 -7 0 -17 6 -21 14 -8 13 -68 48 -90 52 -10 2 -72
42 -83 55 -3 3 -36 27 -75 55 -38 27 -85 66 -105 86 -19 21 -40 38 -45 38 -6
0 -35 23 -65 50 -30 28 -51 50 -47 50 5 0 -6 12 -25 27 -36 31 -57 54 -58 65
0 4 26 -17 58 -46 77 -73 86 -80 268 -202 217 -145 544 -309 819 -409 458
-167 597 -204 906 -245 85 -12 194 -30 244 -40 49 -11 104 -20 123 -20 19 0
31 -4 27 -10 -3 -5 -28 -10 -56 -10 -37 0 -63 -8 -105 -31 -70 -40 -120 -37
-169 11 -45 43 -127 54 -360 46 -229 -9 -224 -9 -454 -7 -211 1 -248 -4 -308
-48 -65 -47 -76 -47 -161 -4 l-77 38 -205 -2 c-156 -1 -216 -5 -251 -17 -33
-11 -54 -13 -78 -6 -18 5 -92 7 -165 4 -128 -6 -132 -7 -182 -40 l-50 -34 -54
26 c-76 37 -140 44 -303 35 -126 -7 -148 -11 -176 -30 -32 -23 -32 -23 -126
-7 -99 17 -138 16 -655 -23 -141 -11 -198 -33 -238 -93 l-27 -42 -8 -645 c-5
-355 -6 -665 -2 -689 9 -60 60 -115 122 -133 66 -18 119 -15 333 20 462 75
1241 175 1790 231 168 17 321 32 340 35 19 2 104 9 188 16 169 14 156 16 392
-50 80 -23 185 -52 234 -66 131 -37 387 -92 501 -109 323 -48 377 -51 825 -51
473 1 547 6 905 66 217 36 328 63 545 131 l165 51 300 -32 c401 -44 647 -80
1075 -156 277 -50 525 -90 617 -100 108 -12 210 35 237 110 4 11 7 192 6 402
-1 329 1 387 15 413 8 16 19 30 23 30 18 0 155 136 175 174 20 37 22 55 22
191 0 172 -11 209 -75 251 -49 33 -106 40 -450 59 -157 9 -409 25 -560 35
-151 10 -367 24 -480 31 -227 12 -229 12 -332 -51 -27 -17 -57 -30 -68 -30
-11 0 -62 18 -113 39 -157 67 -363 96 -515 72 -83 -13 -217 -61 -257 -93 l-27
-21 -36 20 c-104 57 -279 93 -454 93 -162 0 -247 -13 -311 -45 -62 -32 -92
-31 -139 1 -36 25 -46 27 -189 31 -106 4 -164 1 -189 -7 -31 -10 -54 -10 -126
3 -49 8 -118 18 -154 22 -86 9 -482 88 -595 120 -49 13 -133 36 -185 51 -125
34 -363 120 -420 150 -59 32 -103 71 -95 84 4 6 1 9 -7 8 -7 -2 -26 23 -43 57
-28 56 -30 69 -33 188 -3 121 -2 130 21 170 14 23 53 73 87 111 34 38 130 150
213 250 83 100 192 228 243 286 50 58 115 135 145 171 246 302 445 504 540
549 75 35 102 37 354 15 350 -29 426 -34 660 -45 320 -15 434 -26 484 -46 57
-22 143 -126 194 -232 34 -70 41 -97 45 -163 l5 -79 -74 -153 c-81 -167 -348
-699 -439 -872 -112 -215 -281 -576 -277 -588 3 -6 10 2 16 19 12 31 14 32
149 59 421 84 568 120 760 187 261 89 454 179 655 304 163 102 422 291 475
348 47 50 87 66 60 24 -23 -35 -31 -88 -13 -88 33 0 305 297 398 436 28 42 38
72 12 38 -11 -14 -17 -16 -23 -7 -4 6 -29 13 -55 14 -47 3 -47 3 -28 23 10 12
26 36 37 54 10 17 22 32 26 32 4 0 8 5 8 12 0 6 11 25 24 42 27 36 59 96 51
96 -3 0 -26 -33 -51 -72 -111 -174 -276 -370 -482 -572 -170 -167 -271 -252
-337 -282 -27 -13 -46 -24 -40 -24 11 0 -36 -35 -48 -35 -5 0 -15 -9 -23 -20
-8 -11 -16 -19 -17 -18 -5 6 -47 -11 -47 -19 0 -5 -4 -6 -10 -3 -5 3 -10 2
-10 -3 0 -8 -48 -26 -58 -23 -9 4 -62 -31 -57 -38 9 -15 -22 -32 -66 -36 -23
-2 -47 -9 -53 -16 -8 -9 -7 -11 4 -6 47 17 54 18 30 3 -14 -8 -35 -12 -46 -10
-12 3 -25 0 -30 -7 -5 -9 -2 -10 9 -6 10 3 17 4 17 1 0 -9 -71 -35 -80 -29 -6
4 -10 1 -10 -5 0 -7 -6 -10 -13 -7 -7 3 -30 -4 -52 -14 -21 -10 -44 -19 -51
-19 -7 0 -44 -16 -81 -35 -58 -30 -287 -105 -318 -104 -5 0 53 21 130 48 124
42 267 101 420 172 126 59 357 196 475 283 279 205 604 550 750 794 79 135
227 440 260 541 l32 93 -21 15 c-19 13 -21 40 -2 29 27 -17 62 82 106 299 41
204 56 342 60 560 2 116 1 195 -2 177 -2 -18 -8 -30 -12 -28 -4 3 -8 -9 -8
-27 -2 -45 -20 -166 -22 -142 -2 19 -2 19 -16 1 -16 -22 -14 -35 -20 124 -6
142 -5 142 -22 128 -20 -16 -25 -5 -13 27 6 15 9 29 7 32 -6 5 -28 -58 -76
-212 -49 -156 -65 -185 -57 -102 44 426 33 944 -24 1197 l-20 85 5 -80 c4 -55
2 -75 -5 -65 -6 10 -10 11 -10 3 0 -23 -26 -14 -38 12 -7 14 -12 54 -12 88 0
57 -35 250 -59 322 -12 39 -13 11 -1 -40 64 -267 73 -658 21 -935 -58 -308
-72 -355 -165 -545 -75 -152 -157 -285 -225 -364 -26 -31 -56 -66 -67 -79 -24
-29 -169 -153 -247 -211 -61 -47 -65 -47 -109 4 -16 19 -26 46 -11 32 3 -4 11
-1 17 7 6 7 56 46 111 86 132 97 295 262 369 374 72 109 143 257 190 396 20
58 36 108 36 113 0 17 -18 -4 -24 -29 -4 -14 -15 -38 -26 -53 -10 -14 -21 -44
-25 -66 -3 -22 -13 -50 -23 -64 -31 -44 -54 -85 -58 -104 -2 -10 -16 -40 -33
-66 -16 -26 -31 -56 -32 -66 -2 -10 -17 -22 -32 -26 -15 -4 -40 -20 -55 -36
-15 -16 -24 -24 -19 -19 11 15 8 28 -4 20 -12 -7 5 21 57 97 34 49 74 123 74
136 0 4 -13 -16 -29 -45 -127 -229 -372 -449 -682 -611 -313 -163 -600 -238
-944 -248 -178 -5 -198 -3 -318 21 -130 27 -307 86 -452 151 -53 23 -71 29
-55 16 14 -11 71 -39 128 -62 56 -23 106 -47 110 -54 4 -7 18 -16 32 -19 19
-6 21 -5 10 3 -13 10 -13 11 0 11 23 0 43 -17 36 -29 -4 -6 -2 -11 3 -11 6 0
11 5 11 10 0 6 5 10 10 10 7 0 7 -6 0 -19 -8 -16 -7 -20 7 -19 10 0 27 -3 37
-7 12 -6 17 -5 13 2 -4 5 14 3 38 -5 25 -8 45 -18 45 -22 0 -4 20 -11 45 -15
25 -3 43 -10 40 -16 -4 -5 11 -9 32 -10 21 -1 49 -5 63 -10 16 -5 -23 -7 -105
-4 -107 3 -147 9 -225 33 -111 34 -357 134 -409 166 -56 35 -61 37 -61 32 0
-2 17 -15 38 -27 20 -13 39 -26 42 -30 3 -3 21 -12 42 -19 23 -9 34 -18 31
-27 -3 -7 1 -13 10 -13 8 0 19 -6 25 -13 8 -10 6 -13 -8 -13 -10 0 -17 3 -14
7 8 14 -67 32 -79 20 -8 -8 -8 -11 1 -11 6 0 28 -14 47 -32 20 -17 58 -37 83
-44 45 -12 46 -13 12 -13 -88 1 -298 52 -380 94 -130 65 -226 138 -350 264
-196 198 -292 348 -353 551 -45 149 -57 230 -58 393 -1 144 10 207 59 342 61
167 135 278 291 435 282 283 576 419 946 437 383 18 694 -134 821 -402 71
-148 69 -310 -3 -455 -45 -91 -157 -207 -253 -263 -35 -20 -58 -37 -50 -38 10
0 8 -3 -5 -9 -11 -5 -15 -9 -8 -9 18 -1 221 72 273 99 149 76 286 214 348 350
99 220 100 476 1 671 -71 142 -194 289 -314 374 -74 52 -237 135 -325 163
-261 86 -595 92 -881 18 -269 -71 -469 -160 -688 -308 -182 -123 -258 -183
-389 -304 -57 -53 -104 -95 -106 -93 -2 2 -6 22 -9 44 l-5 40 136 123 c76 67
180 155 232 193 102 76 117 89 108 89 -17 0 -284 -212 -379 -300 l-109 -101
-26 28 -26 28 23 -34 c14 -21 24 -54 26 -85 5 -69 -19 -107 -90 -140 -59 -28
-84 -32 -119 -15 -30 13 -68 94 -69 145 0 30 -2 34 -8 19 -5 -11 -7 -46 -5
-78 2 -37 -1 -55 -8 -51 -6 4 -6 0 1 -13 13 -25 59 -56 71 -48 5 3 34 -1 63
-8 44 -12 60 -12 84 -2 28 12 26 7 -35 -84 -102 -154 -164 -293 -212 -475 -41
-155 -42 -161 -36 -275 8 -156 26 -340 37 -373 4 -16 5 -28 1 -28 -8 0 -56 58
-92 110 -13 19 -29 38 -34 42 -6 4 -9 25 -7 48 2 29 -3 48 -15 61 -37 42 8
494 50 485 6 -2 8 -1 4 1 -12 7 -9 33 3 31 6 -2 14 3 17 11 3 9 0 11 -8 6 -10
-6 -11 -3 -6 11 5 10 11 30 16 44 11 39 100 211 125 245 26 34 59 109 45 100
-14 -9 -84 -132 -141 -246 -56 -113 -113 -290 -128 -399 -5 -41 -11 -137 -12
-213 l-1 -138 138 -176 c77 -97 182 -233 234 -302 294 -387 340 -446 427 -550
94 -110 144 -236 127 -316 -8 -38 -50 -98 -106 -152 -38 -37 -44 -40 -45 -22
-1 11 5 23 13 26 13 5 13 7 3 14 -8 4 -10 11 -6 15 3 4 14 1 23 -7 16 -13 16
-12 6 6 -7 11 -16 32 -22 48 -5 15 -16 27 -23 27 -18 0 -20 -59 -4 -79 9 -12
9 -13 0 -8 -8 5 -11 1 -7 -13 2 -11 6 -29 8 -39 5 -22 -14 -41 -164 -161 -51
-41 -110 -89 -129 -106 -20 -17 -99 -79 -176 -139 -77 -60 -198 -156 -270
-215 -168 -137 -221 -174 -199 -138 4 7 3 8 -5 4 -6 -4 -9 -11 -6 -16 7 -11
-99 -87 -175 -126 -49 -26 -65 -29 -145 -29 -97 1 -138 15 -203 70 -41 34
-157 187 -291 383 -59 86 -121 177 -138 202 -161 235 -375 595 -454 766 -58
126 -72 185 -66 275 10 146 41 184 276 336 80 52 164 108 187 123 101 71 519
311 730 419 70 35 81 45 77 62 -6 22 8 138 33 274 36 194 141 429 274 615 210
293 571 637 890 845 215 141 361 213 595 292 323 109 516 143 824 143 438 0
774 -92 1087 -298 270 -178 439 -376 558 -655 67 -158 89 -248 106 -438 17
-181 -21 -415 -91 -564 -32 -70 -169 -288 -176 -281 -2 2 13 37 35 77 48 93
106 248 132 359 29 123 46 335 34 440 l-10 85 0 -135 c0 -92 -6 -156 -17 -200
-9 -36 -21 -94 -27 -130 -11 -73 -55 -190 -113 -299 -142 -270 -440 -514 -738
-605 -122 -37 -133 -31 -14 8 55 18 128 48 163 67 35 19 80 43 100 53 72 37
15 26 -64 -12 -111 -55 -145 -62 -49 -10 44 24 112 65 150 92 123 87 316 298
399 436 l27 45 -26 -30 c-15 -16 -37 -42 -50 -58 -14 -16 -26 -23 -30 -17 -3
5 -12 10 -18 10 -8 0 -8 -3 1 -9 10 -6 10 -10 -2 -20 -11 -9 -16 -9 -22 0 -5
8 -3 9 6 4 10 -6 12 -4 7 7 -3 9 1 24 8 35 8 10 14 23 15 28 0 6 -5 3 -10 -5
-7 -12 -10 -8 -10 15 0 24 2 27 11 15 9 -13 10 -13 6 0 -2 8 12 40 31 70 34
53 103 194 102 208 -1 4 -21 -33 -46 -82 -119 -236 -322 -448 -545 -570 -74
-41 -214 -91 -280 -100 -37 -5 -33 -3 26 17 178 60 347 180 490 347 17 19 -4
1 -46 -42 -67 -67 -92 -84 -208 -141 -246 -122 -418 -163 -646 -154 -203 8
-343 63 -456 178 -190 193 -158 466 65 539 53 17 149 9 184 -17 30 -22 42 -83
21 -109 -17 -21 -62 -17 -93 7 -32 25 -47 16 -48 -28 -1 -40 8 -52 48 -69 72
-30 197 -7 260 48 38 34 77 103 87 155 9 44 -8 125 -35 181 -13 25 -52 71 -87
103 -72 67 -63 76 25 24 146 -87 223 -228 191 -350 -7 -25 -6 -28 5 -17 9 9
13 45 12 125 -1 139 -22 201 -95 281 -96 105 -241 153 -433 143 -303 -15 -559
-171 -704 -428 -43 -77 -35 -76 12 1 56 90 119 160 176 192 32 18 48 33 44 41
-5 9 -3 9 7 0 16 -16 33 -17 23 -1 -4 6 -3 8 3 5 6 -4 30 4 54 17 64 36 194
86 221 86 12 -1 -8 -11 -47 -24 -386 -125 -586 -465 -491 -838 89 -351 441
-691 831 -803 260 -75 568 -74 855 1 335 89 599 232 828 450 261 248 398 521
442 879 16 137 18 144 20 80 l2 -70 10 45 c11 48 -3 372 -22 516 -12 86 -49
227 -62 232 -4 2 -8 12 -8 22 0 10 -4 22 -10 25 -15 9 -12 -16 15 -164 28
-148 31 -217 21 -401 -7 -123 -41 -337 -56 -353 -10 -11 -18 121 -19 290 l-1
133 35 46 c31 40 35 53 35 104 0 32 -4 62 -10 65 -5 3 -10 -2 -11 -12 0 -10
-9 1 -19 25 -12 26 -32 50 -55 63 -21 13 -37 32 -41 48 -35 156 -88 294 -171
451 -108 203 -210 342 -370 505 -136 139 -231 217 -380 309 -147 91 -232 134
-370 187 -315 121 -584 158 -978 137 -128 -7 -129 -7 -66 7 81 18 93 23 59 24
-32 1 -39 21 -8 21 21 0 29 30 8 31 -7 0 -4 4 7 9 16 7 14 9 -15 9 -26 1 -31
4 -20 11 11 7 -1 10 -42 10 -62 0 -70 5 -61 38 4 18 13 22 47 23 22 0 59 4 81
8 39 8 39 9 8 10 -36 1 -42 17 -23 65 6 16 6 27 0 31 -27 17 -1 99 28 91 9 -2
37 -1 62 4 36 6 27 7 -50 7 -52 0 -114 -2 -137 -4z m450 -555 c61 -32 75 -92
30 -134 -53 -49 -116 -44 -139 12 -8 20 -12 45 -9 57 5 17 4 19 -4 7 -9 -13
-11 -13 -11 2 0 23 57 68 86 68 14 0 35 -5 47 -12z m-200 -5 c-24 -2 -62 -2
-85 0 -24 2 -5 4 42 4 47 0 66 -2 43 -4z m265 -270 c-10 -2 -26 -2 -35 0 -10
3 -2 5 17 5 19 0 27 -2 18 -5z m-48 -84 c0 -12 -37 -12 -44 0 -3 4 -3 11 0 14
8 7 44 -4 44 -14z m-363 -25 c-3 -3 -12 -4 -19 -1 -8 3 -5 6 6 6 11 1 17 -2
13 -5z m-184 -31 c-7 -2 -19 -2 -25 0 -7 3 -2 5 12 5 14 0 19 -2 13 -5z
m-1355 -45 c19 -19 15 -48 -8 -48 -11 0 -20 6 -20 14 0 8 -3 21 -6 30 -7 19
16 22 34 4z m670 -109 c-2 -6 -8 -10 -13 -10 -5 0 -11 4 -13 10 -2 6 4 11 13
11 9 0 15 -5 13 -11z m2460 -206 c3 -17 -1 -20 -17 -16 -26 7 -29 46 -3 41 9
-2 18 -13 20 -25z m392 -143 c6 -11 8 -20 6 -20 -3 0 -10 9 -16 20 -6 11 -8
20 -6 20 3 0 10 -9 16 -20z m-1737 -107 c-13 -2 -33 -2 -45 0 -13 2 -3 4 22 4
25 0 35 -2 23 -4z m-133 -7 c0 -2 3 -11 6 -20 7 -18 -12 -21 -35 -7 -16 10 -6
31 15 31 8 0 14 -2 14 -4z m273 -3 c-7 -2 -21 -2 -30 0 -10 3 -4 5 12 5 17 0
24 -2 18 -5z m204 -39 c-3 -3 -12 -4 -19 -1 -8 3 -5 6 6 6 11 1 17 -2 13 -5z
m98 -29 c84 -31 211 -98 250 -130 17 -14 -5 -4 -47 21 -43 26 -126 66 -185 90
-115 47 -128 61 -18 19z m-1245 -79 c0 -2 -7 -7 -16 -10 -8 -3 -12 -2 -9 4 6
10 25 14 25 6z m-55 -26 c-3 -5 -12 -10 -18 -10 -7 0 -6 4 3 10 19 12 23 12
15 0z m-75 -34 c0 -2 -7 -7 -16 -10 -8 -3 -12 -2 -9 4 6 10 25 14 25 6z m1390
-17 c0 -15 -4 -19 -16 -15 -9 3 -18 6 -20 6 -2 0 -4 7 -4 15 0 8 9 15 20 15
14 0 20 -7 20 -21z m291 -16 c13 -16 12 -17 -3 -4 -17 13 -22 21 -14 21 2 0
10 -8 17 -17z m79 -68 c30 -30 52 -55 49 -55 -2 0 -29 25 -59 55 -30 30 -52
55 -49 55 2 0 29 -25 59 -55z m980 9 c0 -8 -4 -12 -10 -9 -5 3 -10 10 -10 16
0 5 5 9 10 9 6 0 10 -7 10 -16z m-3083 -45 c6 -6 9 -17 6 -24 -2 -7 4 -15 14
-17 16 -3 15 -5 -5 -17 -31 -16 -48 -9 -56 25 -9 36 17 57 41 33z m3354 -118
c24 -25 28 -36 26 -73 l-2 -43 -60 2 c-33 1 -80 8 -103 14 -42 12 -44 14 -38
43 4 22 3 27 -4 16 -5 -8 -10 -37 -11 -65 -1 -46 -1 -48 -10 -20 -11 38 -3 77
23 110 26 33 51 44 106 44 35 1 49 -5 73 -28z m-2896 -1 c8 -26 -1 -40 -26
-40 -22 0 -34 22 -25 45 8 22 44 18 51 -5z m-1079 -251 c4 -8 1 -8 -14 0 -12
6 -24 16 -28 22 -4 8 -1 8 14 0 12 -6 24 -16 28 -22z m2917 -173 c6 -16 -16
-40 -26 -29 -4 3 -7 15 -7 25 0 21 25 24 33 4z m-1403 -166 c0 -5 -2 -10 -4
-10 -3 0 -8 5 -11 10 -3 6 -1 10 4 10 6 0 11 -4 11 -10z m-1093 -8 c6 -4 13
-21 15 -37 2 -25 -1 -31 -21 -33 -32 -5 -46 11 -32 37 8 15 9 21 1 21 -6 0 -8
5 -5 10 7 12 25 13 42 2z m4080 -164 c-3 -8 -6 -5 -6 6 -1 11 2 17 5 13 3 -3
4 -12 1 -19z m0 -135 c-2 -21 -4 -4 -4 37 0 41 2 58 4 38 2 -21 2 -55 0 -75z
m-4020 60 c-8 -16 -17 -40 -21 -55 -3 -16 -11 -28 -16 -28 -5 0 -17 -25 -25
-55 -18 -60 -31 -75 -21 -22 8 39 78 187 89 187 4 0 1 -12 -6 -27z m2149 -35
c4 -7 3 -10 -1 -5 -11 10 -46 -23 -38 -36 3 -6 1 -7 -5 -3 -7 4 -12 2 -12 -3
0 -6 10 -11 23 -11 22 -1 22 -1 2 -15 -11 -8 -30 -24 -42 -36 -23 -21 -183
-83 -192 -74 -2 3 0 5 6 5 5 0 39 19 74 41 35 23 69 42 76 43 7 1 16 6 20 11
4 4 1 5 -7 0 -8 -4 7 15 35 44 27 28 50 51 52 51 1 0 5 -6 9 -12z m34 -2 c0
-2 -8 -10 -17 -17 -16 -13 -17 -12 -4 4 13 16 21 21 21 13z m-2135 -284 c-1
-92 -2 -185 -4 -207 l-3 -40 -14 60 c-10 43 -13 93 -8 175 4 93 18 180 27 180
1 0 2 -75 2 -168z m2775 164 c0 -2 -7 -7 -16 -10 -8 -3 -12 -2 -9 4 6 10 25
14 25 6z m-2920 -83 c-11 -17 -11 -17 -6 0 3 10 6 24 7 30 0 9 2 9 5 0 3 -7 0
-20 -6 -30z m2900 -16 c0 -2 -10 -12 -21 -23 -22 -19 -22 -19 -10 4 10 18 31
31 31 19z m-2888 -165 c-3 -160 16 -300 74 -522 29 -114 141 -357 162 -353 6
2 24 -21 38 -50 15 -28 42 -71 60 -94 19 -23 34 -44 34 -47 0 -7 -50 15 -50
23 -1 3 -11 19 -25 35 -19 24 -26 27 -38 18 -12 -10 -16 -9 -21 3 -8 23 -26
18 -26 -7 0 -17 -3 -19 -9 -9 -5 7 -13 11 -18 8 -28 -17 -136 172 -187 326
-66 199 -80 453 -38 727 8 57 29 106 40 95 3 -3 5 -72 4 -153z m3318 59 c0
-10 -7 -24 -15 -31 -12 -10 -16 -9 -21 4 -6 16 11 46 27 46 5 0 9 -8 9 -19z
m-3608 -212 c5 -3 13 -53 17 -110 8 -91 29 -201 61 -318 5 -19 8 -37 6 -38 -2
-2 -24 23 -49 57 -55 73 -72 136 -72 270 0 96 13 188 23 160 3 -8 9 -18 14
-21z m1403 -129 c64 -78 156 -154 266 -221 103 -62 93 -64 -17 -4 -80 44 -140
90 -212 165 -42 43 -132 169 -132 184 0 6 10 -5 21 -24 12 -19 45 -64 74 -100z
m165 95 c13 -14 21 -25 18 -25 -2 0 -15 11 -28 25 -13 14 -21 25 -18 25 2 0
15 -11 28 -25z m90 -71 c0 -3 -13 4 -30 16 -16 12 -30 24 -30 26 0 3 14 -4 30
-16 17 -12 30 -24 30 -26z m-1171 -39 c0 -5 -4 -3 -9 5 -5 8 -9 22 -9 30 0 16
17 -16 18 -35z m1391 -2 c52 -19 131 -40 175 -47 44 -8 66 -14 48 -15 -48 -2
-171 25 -238 52 -57 22 -142 66 -100 51 11 -4 63 -22 115 -41z m-3520 12 c10
-11 9 -18 -4 -30 -14 -14 -21 -43 -17 -67 0 -5 -3 -8 -8 -8 -10 0 -21 87 -14
107 7 17 28 17 43 -2z m3001 -12 c13 -16 12 -17 -3 -4 -10 7 -18 15 -18 17 0
8 8 3 21 -13z m444 -23 c15 -10 113 -39 175 -50 157 -30 313 -31 500 -5 35 5
35 5 5 -5 -16 -5 -80 -15 -141 -22 -140 -14 -322 0 -448 37 -80 23 -166 59
-166 70 0 5 61 -15 75 -25z m810 11 c-6 -5 -26 -11 -45 -15 -35 -5 -35 -5 5 9
50 17 51 17 40 6z m485 0 c0 -20 -13 -41 -25 -41 -18 0 -26 15 -19 34 6 17 44
23 44 7z m-2632 -52 c-3 -8 -7 -3 -11 10 -4 17 -3 21 5 13 5 -5 8 -16 6 -23z
m2059 25 c-3 -3 -12 -4 -19 -1 -8 3 -5 6 6 6 11 1 17 -2 13 -5z m-4127 -8 c0
-2 -8 -10 -17 -17 -16 -13 -17 -12 -4 4 13 16 21 21 21 13z m4087 -2 c-3 -3
-12 -4 -19 -1 -8 3 -5 6 6 6 11 1 17 -2 13 -5z m-84 -11 c-7 -2 -19 -2 -25 0
-7 3 -2 5 12 5 14 0 19 -2 13 -5z m-55 -8 c-7 -7 -188 -8 -195 -1 -4 3 40 6
97 6 57 0 101 -2 98 -5z m1572 -54 c-5 -11 -15 -23 -21 -27 -6 -3 -3 5 6 20
20 30 30 35 15 7z m-3440 -11 c21 -21 26 -40 11 -40 -10 0 -26 19 -34 43 -8
22 -2 22 23 -3z m3960 10 c20 -5 54 -28 75 -50 39 -40 40 -43 39 -106 -1 -61
-3 -67 -35 -95 -34 -29 -98 -63 -106 -55 -2 2 9 13 25 24 67 48 109 157 76
198 -8 10 -13 13 -9 7 3 -7 2 -13 -4 -13 -5 0 -12 6 -14 13 -3 6 -3 -10 0 -38
4 -43 1 -54 -20 -77 -31 -36 -70 -49 -117 -42 -52 9 -70 23 -80 64 -7 33 -8
32 -10 -20 l-2 -55 -10 48 c-20 92 16 164 97 192 49 17 51 17 95 5z m-2915
-30 c10 -11 16 -20 13 -20 -3 0 -13 9 -23 20 -10 11 -16 20 -13 20 3 0 13 -9
23 -20z m-1009 -135 c53 -111 135 -235 205 -312 64 -70 46 -68 -31 4 -19 18
-48 39 -65 47 -32 15 -55 43 -117 138 -64 99 -72 119 -70 180 2 31 -2 59 -8
63 -5 3 -10 11 -10 17 0 30 48 -39 96 -137z m3358 130 c-4 -8 -11 -15 -16 -15
-6 0 -5 6 2 15 7 8 14 15 16 15 2 0 1 -7 -2 -15z m-1956 -17 c2 -12 -3 -18
-16 -18 -22 0 -46 23 -35 34 13 13 48 1 51 -16z m812 12 c0 -5 -7 -10 -15 -10
-8 0 -15 5 -15 10 0 6 7 10 15 10 8 0 15 -4 15 -10z m1093 -23 c-5 -8 -8 -7
-11 1 -3 10 -7 10 -20 0 -15 -12 -15 -11 -4 4 14 18 47 13 35 -5z m-2199 -36
c-2 -3 -12 3 -22 13 -16 17 -16 18 5 5 12 -7 20 -15 17 -18z m2207 6 c-10 -9
-11 -8 -5 6 3 10 9 15 12 12 3 -3 0 -11 -7 -18z m-66 -23 c-10 -20 -15 -23
-15 -11 0 16 21 49 28 42 1 -1 -4 -15 -13 -31z m-5783 -106 c-7 -7 -12 -8 -12
-2 0 14 12 26 19 19 2 -3 -1 -11 -7 -17z m6259 -106 c-5 -9 -9 -28 -8 -42 3
-49 -174 -310 -237 -350 -13 -8 -71 -58 -129 -111 -63 -58 -117 -99 -134 -102
l-28 -5 35 30 c154 134 297 295 398 448 74 113 101 150 109 150 2 0 -1 -8 -6
-18z m-819 -159 c59 -52 65 -142 12 -192 -15 -14 -23 -19 -18 -11 4 8 9 21 10
30 1 8 6 26 10 40 7 22 5 22 -22 -8 -43 -48 -83 -56 -127 -26 -20 13 -38 34
-40 46 -2 13 -3 7 -1 -12 3 -35 3 -35 -11 -10 -33 58 -13 123 47 151 50 23
109 20 140 -8z m-5632 -138 c5 -27 12 -59 15 -70 6 -16 5 -17 -4 -5 -13 19
-14 5 -1 -20 5 -10 10 -59 11 -109 1 -73 4 -93 17 -100 9 -5 13 -13 9 -17 -4
-4 1 -16 10 -26 10 -11 16 -33 16 -51 -2 -26 0 -28 7 -12 7 16 9 12 9 -20 1
-54 42 -167 58 -160 16 5 17 -17 2 -32 -8 -8 -8 -17 1 -32 6 -12 8 -26 5 -31
-3 -6 -2 -10 3 -10 6 0 20 -19 32 -42 12 -24 28 -47 36 -51 8 -4 14 -13 14
-20 0 -7 21 -39 46 -72 98 -129 101 -133 99 -164 -1 -17 1 -28 5 -26 7 4 50
-48 50 -60 0 -4 14 -18 30 -32 31 -26 41 -57 15 -47 -8 4 -15 12 -15 18 0 7
-25 38 -55 69 -31 31 -52 57 -48 57 4 0 4 4 -2 8 -21 15 -50 56 -35 48 9 -4 8
-2 -2 7 -10 8 -18 19 -18 25 0 6 -6 15 -14 19 -17 10 -41 54 -38 71 2 7 -3 11
-10 10 -7 -2 -12 3 -11 10 2 6 -2 12 -8 12 -5 0 -7 5 -4 10 3 6 2 10 -3 10 -9
0 -53 84 -93 178 -8 17 -17 32 -21 32 -5 0 -8 6 -8 14 0 8 -5 27 -12 43 -6 15
-13 36 -15 46 -1 10 -10 31 -18 48 -9 16 -20 48 -24 72 -45 218 -47 233 -55
406 -4 84 6 152 12 81 1 -19 7 -57 12 -85z m2737 -7 c-3 -8 -6 -5 -6 6 -1 11
2 17 5 13 3 -3 4 -12 1 -19z m988 -56 c-3 -3 -11 0 -18 7 -9 10 -8 11 6 5 10
-3 15 -9 12 -12z m1729 -13 c-7 -12 -234 -96 -234 -86 0 3 50 24 111 48 60 24
105 45 100 47 -6 2 -11 8 -11 13 0 5 9 4 19 -3 11 -7 18 -15 15 -19z m-2617
-21 c32 -35 63 -78 63 -89 0 -4 -8 -9 -17 -12 -10 -4 -28 -14 -40 -23 -21 -15
-23 -15 -29 2 -4 11 -12 26 -19 34 -14 17 -28 104 -18 114 13 13 30 5 60 -26z
m2245 -47 c-2 -8 4 -10 18 -6 30 9 24 -10 -7 -25 -16 -7 -23 -15 -16 -17 7 -2
21 1 32 7 14 7 21 7 21 1 0 -13 -40 -24 -71 -19 -28 4 -38 40 -18 64 14 17 45
14 41 -5z m1078 -36 c-18 -19 -37 -32 -41 -30 -4 3 -10 -1 -12 -7 -4 -9 -6 -9
-6 -2 -1 14 65 74 81 74 7 0 -3 -16 -22 -35z m-953 9 c-3 -3 -12 -4 -19 -1 -8
3 -5 6 6 6 11 1 17 -2 13 -5z m1328 -104 c3 -5 2 -10 -4 -10 -5 0 -13 5 -16
10 -3 6 -2 10 4 10 5 0 13 -4 16 -10z m-695 -24 c0 -2 -8 -10 -17 -17 -16 -13
-17 -12 -4 4 13 16 21 21 21 13z m345 -30 c66 -51 82 -116 45 -190 -26 -52
-60 -77 -113 -82 l-42 -4 40 15 c28 10 50 29 73 63 36 54 44 86 14 59 -10 -10
-23 -17 -29 -17 -6 0 -27 -13 -48 -30 -49 -39 -79 -38 -121 4 -28 28 -34 42
-35 78 l-1 43 -13 -40 c-7 -22 -13 -33 -14 -24 -2 24 20 81 38 103 53 63 140
72 206 22z m-5847 -209 c17 -31 26 -55 21 -51 -10 6 -59 98 -59 110 0 11 6 3
38 -59z m4901 -73 c46 -58 -41 -112 -103 -63 -20 16 -25 26 -20 43 11 36 25
46 64 46 30 0 43 -6 59 -26z m-5059 -9 c-10 -12 -10 -15 0 -15 8 0 11 -3 7 -6
-3 -3 -11 -3 -17 1 -8 5 -8 11 1 21 6 8 14 14 16 14 3 0 0 -7 -7 -15z m5340
-249 c0 -8 -4 -17 -8 -20 -13 -8 -35 11 -28 23 10 16 36 14 36 -3z m467 -102
c-3 -3 -12 -4 -19 -1 -8 3 -5 6 6 6 11 1 17 -2 13 -5z m-1287 -165 c0 -5 -4
-9 -10 -9 -5 0 -10 7 -10 16 0 8 5 12 10 9 6 -3 10 -10 10 -16z m936 -96 c2
-9 -2 -9 -17 0 -11 7 -15 13 -10 15 6 2 8 11 5 20 -4 12 -2 11 7 -3 7 -11 14
-25 15 -32z m-944 22 c0 -5 -5 -11 -11 -13 -6 -2 -11 4 -11 13 0 9 5 15 11 13
6 -2 11 -8 11 -13z m-4078 -134 c-2 -3 -13 5 -24 17 -12 12 -18 22 -14 22 4 0
1 8 -7 18 -8 10 0 2 18 -17 17 -20 30 -38 27 -40z m4433 57 c-4 -25 -22 -35
-32 -18 -10 16 2 40 20 40 10 0 14 -7 12 -22z m733 -102 c0 -2 -8 -10 -17 -17
-16 -13 -17 -12 -4 4 13 16 21 21 21 13z m-45 -36 c-12 -19 -198 -143 -334
-223 -198 -117 -396 -210 -570 -268 -84 -28 -155 -48 -158 -46 -3 3 33 17 79
32 193 60 434 165 553 240 22 14 47 28 55 31 31 14 287 175 330 208 49 38 54
41 45 26z m-195 -64 c0 -16 -368 -221 -378 -211 -2 2 45 28 104 59 60 30 145
77 189 105 85 53 85 53 85 47z m-470 -257 c-118 -56 -297 -129 -312 -128 -9 0
-8 2 2 6 33 12 268 113 320 136 30 14 60 26 65 26 6 0 -28 -18 -75 -40z m365
-39 c-3 -5 -11 -10 -16 -10 -6 0 -7 5 -4 10 3 6 11 10 16 10 6 0 7 -4 4 -10z
m-710 -100 c-11 -5 -27 -9 -35 -9 -9 0 -8 4 5 9 11 5 27 9 35 9 9 0 8 -4 -5
-9z m-68 -86 c-3 -3 -12 -4 -19 -1 -8 3 -5 6 6 6 11 1 17 -2 13 -5z m-2606
-212 c-7 -2 -18 1 -23 6 -8 8 -4 9 13 5 13 -4 18 -8 10 -11z m30 -232 c18 -10
19 -24 17 -353 l-1 -342 -9 310 c-4 171 -11 325 -14 343 l-5 32 -77 0 c-42 0
-114 -3 -158 -6 l-81 -7 -18 -41 c-10 -22 -40 -87 -67 -143 -26 -57 -48 -106
-48 -109 0 -10 -50 -114 -55 -114 -5 0 -5 0 60 164 26 66 62 152 80 192 l33
73 79 4 c176 7 245 6 264 -3z m546 -22 c10 -18 36 -80 59 -138 23 -58 56 -140
74 -183 17 -44 30 -83 28 -89 -2 -5 -19 28 -37 74 -19 45 -48 110 -66 143 -17
33 -40 84 -50 113 -33 92 -34 92 -205 92 -82 0 -151 -4 -154 -8 -3 -5 -8 -177
-12 -383 -3 -206 -8 -376 -10 -378 -2 -2 -4 172 -4 388 0 239 4 390 9 386 5
-3 12 -1 16 5 4 6 70 10 170 10 l164 0 18 -32z m1913 -3 c52 -14 98 -29 102
-33 4 -4 3 -23 -2 -42 l-8 -35 -1 33 c-2 58 -18 25 -25 -51 -10 -98 -14 -104
-62 -79 -101 51 -264 69 -341 37 -45 -19 -53 -30 -53 -73 0 -37 -1 -36 160
-97 239 -91 280 -115 343 -207 29 -41 39 -67 42 -108 l5 -55 -13 51 c-7 28
-20 59 -28 71 -22 31 -73 86 -94 103 -11 8 -1 -6 22 -31 61 -68 73 -98 73
-176 0 -116 -62 -196 -184 -239 -100 -36 -281 -27 -418 21 -119 41 -122 45
-129 161 l-5 99 -3 -80 c-2 -44 -7 -91 -12 -105 -6 -16 -7 4 -4 60 3 47 5 100
5 118 0 24 4 32 18 32 10 0 22 -4 27 -9 20 -17 212 -89 286 -106 101 -24 163
-15 184 25 26 50 18 81 -30 121 -24 21 -66 45 -92 54 -263 96 -312 126 -354
211 -71 148 27 298 229 349 84 22 243 13 362 -20z m-3222 17 c17 -12 202 -437
202 -467 0 -20 -29 35 -73 141 -52 123 -128 277 -134 271 -2 -2 6 -26 17 -53
23 -53 28 -64 88 -194 21 -47 56 -127 77 -178 21 -51 39 -91 40 -90 5 6 83
194 90 216 4 13 22 56 40 97 18 40 46 104 60 141 15 38 32 74 39 81 9 10 212
20 284 14 9 -1 12 -97 12 -445 l0 -445 -92 -3 c-51 -2 -95 -2 -98 0 -3 2 -7
145 -10 319 l-5 315 -28 -87 c-15 -48 -62 -173 -104 -278 -41 -106 -80 -209
-85 -229 -6 -21 -18 -40 -27 -42 -14 -4 -134 -9 -167 -7 -6 1 -17 20 -24 44
-7 23 -24 69 -38 102 -14 33 -45 107 -70 165 -24 58 -59 148 -78 200 l-34 95
0 -327 0 -328 -95 0 -95 0 0 168 c0 92 -3 301 -7 464 -5 249 -4 298 8 303 8 3
75 9 149 14 l135 9 -147 -1 c-80 -1 -149 -4 -151 -7 -3 -3 -10 -147 -15 -320
l-9 -315 1 325 1 325 45 6 c69 9 283 10 298 1z m2016 2 c14 -5 16 -48 14 -388
-1 -291 -3 -348 -9 -241 -3 77 -7 246 -8 375 -1 156 -5 230 -11 220 -6 -9 -10
-183 -10 -441 0 -234 -2 -428 -4 -430 -2 -2 -44 -2 -93 1 l-88 5 -5 315 c-4
246 -7 310 -16 290 -13 -27 -95 -239 -150 -385 -19 -49 -46 -118 -60 -152
l-26 -63 -79 0 c-82 0 -85 2 -92 41 -3 13 -18 58 -34 99 -17 41 -63 172 -104
290 l-74 215 -6 -155 c-4 -85 -7 -235 -8 -332 l-1 -177 -91 -3 c-55 -2 -93 1
-95 7 -3 6 -3 208 -2 450 l3 440 138 3 c132 2 177 -5 177 -29 0 -10 80 -204
123 -300 14 -30 36 -81 50 -114 l25 -59 64 129 c74 147 163 363 154 372 -3 3
-8 -3 -11 -13 -4 -10 -12 -32 -20 -49 -56 -122 -77 -170 -95 -216 -12 -28 -28
-61 -36 -73 -16 -21 -16 -21 -9 4 13 44 135 343 147 357 8 10 51 13 168 13 87
0 165 -3 174 -6z m456 -14 c12 -17 11 -432 0 -500 -5 -29 -9 34 -10 175 -2
121 -4 240 -4 265 -1 25 -5 48 -11 52 -5 4 -57 8 -115 8 -71 0 -100 -3 -90
-10 8 -5 57 -10 109 -10 l94 0 -6 -436 c-3 -240 -7 -438 -9 -439 -2 -2 -46 -5
-98 -6 l-95 -2 -5 444 c-3 297 -7 416 -12 359 -5 -47 -8 -231 -8 -409 0 -178
-3 -322 -6 -319 -11 12 -18 817 -6 830 16 20 259 18 272 -2z m1644 -12 c71
-23 132 -56 184 -101 20 -18 30 -23 22 -13 -8 11 -33 32 -54 48 -50 36 -33 36
25 0 58 -37 132 -121 163 -185 28 -57 50 -186 43 -257 -3 -40 -4 -38 -5 16 -3
84 -37 209 -73 260 -41 59 -56 66 -20 9 38 -60 61 -161 61 -267 0 -175 -33
-271 -127 -369 -96 -101 -195 -139 -357 -139 -117 0 -179 14 -267 61 -168 90
-249 241 -249 464 0 153 39 268 124 366 17 19 7 10 -22 -20 -29 -30 -67 -84
-85 -120 l-32 -66 0 -175 c0 -155 -1 -171 -12 -131 -49 189 -7 368 116 503 28
31 65 61 83 68 18 7 51 20 73 30 35 16 99 32 175 44 47 8 173 -6 234 -26z
m-4584 -3 c10 -12 11 -57 3 -208 l-10 -192 -1 198 -2 197 -124 0 -123 0 -10
-317 -10 -318 -1 322 c-2 249 1 322 11 326 6 3 67 6 133 6 97 1 124 -2 134
-14z m-549 -17 c2 -13 2 -126 -2 -253 l-5 -230 -3 205 c-2 113 -5 215 -6 227
-5 51 -9 53 -102 51 l-88 -2 83 -3 82 -4 0 -350 c0 -305 2 -353 16 -374 15
-22 15 -25 1 -25 -9 0 -22 6 -29 13 -7 7 -29 11 -48 10 -19 -2 -47 -3 -62 -3
-20 -1 -32 -9 -43 -29 -17 -34 -13 -59 15 -110 l20 -36 -30 35 c-59 68 -63 98
-68 498 l-4 362 34 0 c24 1 29 3 18 9 -8 5 -27 7 -42 4 l-28 -5 0 -301 c0
-165 -2 -298 -4 -296 -7 7 -17 566 -11 592 8 31 20 33 186 35 114 2 117 1 120
-20z m6069 -2 l205 -11 1 -115 2 -115 -9 79 c-11 101 -17 116 -18 44 -1 -85
-4 -88 -69 -83 -32 2 -114 7 -184 10 l-128 5 0 -114 0 -114 83 -6 c45 -3 123
-9 174 -12 l92 -7 -6 -76 c-3 -42 -8 -79 -12 -82 -3 -3 -51 -2 -106 3 -55 5
-128 10 -162 12 l-61 4 -7 -124 c-4 -68 -6 -167 -3 -219 l4 -95 -28 0 c-15 0
-61 5 -103 11 l-75 11 -1 277 c-1 152 -5 359 -8 461 -7 163 -8 138 -10 -210
-2 -217 -6 -417 -11 -445 -6 -42 -8 -32 -10 65 -1 63 -4 129 -5 145 -2 35 -8
693 -6 714 1 11 23 12 129 6 70 -4 219 -12 332 -19z m-5549 -8 c1 -7 1 -166 0
-353 -2 -366 -7 -406 -58 -493 -34 -60 -38 -48 -5 17 14 30 26 71 27 92 0 20
3 35 8 32 4 -2 7 6 7 19 l-1 23 -19 -24 c-13 -14 -20 -18 -21 -10 0 10 -2 10
-5 2 -4 -8 -11 -6 -24 7 -21 21 -57 17 -77 -8 -12 -14 -13 -14 -14 4 0 13 -4
10 -11 -11 -11 -31 -38 -68 -45 -61 -3 2 3 18 12 35 14 27 16 77 15 376 -1
189 1 349 5 355 9 15 205 13 206 -2z m-1100 -25 c50 -14 68 -25 108 -68 46
-51 82 -130 80 -179 0 -19 -1 -19 -10 4 -6 14 -12 33 -15 44 -4 24 -41 95 -57
110 -23 23 -72 53 -97 61 -14 4 -28 12 -31 17 -14 21 -612 -3 -636 -26 -8 -8
-14 -117 -20 -356 l-10 -345 -1 357 c-2 276 1 359 11 365 15 10 318 29 490 31
93 2 144 -3 188 -15z m7449 -3 c107 -6 227 -13 266 -16 l71 -5 7 -76 c8 -102
8 -211 -1 -216 -5 -2 -46 1 -93 9 l-85 13 81 -5 c69 -4 82 -3 88 11 9 26 7 57
-4 50 -11 -7 -12 2 -10 100 1 38 -1 67 -4 64 -7 -7 -13 -58 -15 -121 l-1 -48
-137 7 -136 6 7 -284 c3 -156 9 -351 13 -433 l6 -149 -79 7 c-43 4 -97 9 -120
12 l-41 6 -8 266 c-4 147 -10 341 -14 432 l-6 164 -35 7 c-19 4 -81 10 -137
13 l-103 7 0 -26 c0 -14 -4 -25 -10 -25 -6 0 -10 43 -10 110 l0 110 83 -1 c45
0 231 -8 412 -18 182 -9 332 -16 334 -14 2 2 2 5 0 8 -8 7 -819 46 -840 40
-11 -4 -19 -2 -19 6 0 12 128 10 540 -11z m-7465 -31 c63 -23 112 -67 141
-125 15 -31 19 -60 19 -144 0 -103 -1 -107 -35 -164 -37 -61 -78 -98 -135
-122 -19 -8 -35 -18 -35 -22 0 -4 30 -50 66 -102 89 -128 168 -250 183 -280
l12 -25 -21 25 c-35 42 -43 53 -83 113 -30 46 -41 56 -52 47 -10 -8 -17 -7
-27 3 -11 12 -15 12 -26 -2 -7 -9 -11 -11 -8 -4 4 7 -11 12 -45 15 -46 3 -50
1 -46 -18 2 -11 -2 -26 -10 -32 -7 -7 -13 -10 -13 -6 0 4 -2 5 -5 2 -10 -10
77 -154 97 -160 8 -3 9 -6 1 -11 -11 -7 -18 1 -167 231 -47 72 -91 132 -98
132 -7 0 -30 -3 -50 -6 -36 -6 -37 -8 -40 -53 l-4 -46 -8 43 c-14 70 -26 48
-27 -50 -1 -51 -5 -138 -9 -193 l-7 -100 -1 91 -2 91 -52 -2 c-63 -1 -107 -13
-109 -29 -1 -6 -5 7 -9 29 -6 36 -7 33 -9 -26 0 -36 -4 -87 -7 -112 -6 -44 -6
-46 22 -50 29 -4 29 -4 -3 -6 l-33 -1 0 530 c0 416 3 532 13 535 16 6 323 22
459 24 87 1 118 -3 163 -20z m6988 -216 c-7 -2 -19 -2 -25 0 -7 3 -2 5 12 5
14 0 19 -2 13 -5z m205 -10 c-10 -2 -28 -2 -40 0 -13 2 -5 4 17 4 22 1 32 -1
23 -4z m42 -390 c0 -213 -2 -384 -4 -382 -9 10 -15 780 -6 774 6 -4 10 -148
10 -392z m298 169 c-2 -237 -6 -219 -10 40 -2 97 0 174 5 171 4 -2 6 -97 5
-211z m59 192 c-3 -3 -12 -4 -19 -1 -8 3 -5 6 6 6 11 1 17 -2 13 -5z m-1092
-64 c3 -5 -1 -10 -9 -10 -9 0 -16 5 -16 10 0 6 4 10 9 10 6 0 13 -4 16 -10z
m318 -26 c24 -5 27 -10 26 -42 -1 -36 -1 -36 -8 -7 l-6 30 -130 12 c-187 18
-198 22 -45 16 74 -2 147 -7 163 -9z m-326 -206 c-3 -8 -6 -5 -6 6 -1 11 2 17
5 13 3 -3 4 -12 1 -19z m-6190 -50 c-3 -7 -5 -2 -5 12 0 14 2 19 5 13 2 -7 2
-19 0 -25z m6190 10 c-3 -8 -6 -5 -6 6 -1 11 2 17 5 13 3 -3 4 -12 1 -19z
m-5634 -107 c-32 -42 -61 -52 -132 -48 -64 5 -110 27 -119 58 -4 10 0 9 15 -3
11 -10 43 -22 73 -28 70 -13 123 1 152 41 13 17 24 25 26 19 3 -7 -4 -24 -15
-39z m-1526 -73 c-2 -13 -4 -5 -4 17 -1 22 1 32 4 23 2 -10 2 -28 0 -40z
m5683 -239 c7 -11 9 -23 6 -27 -3 -3 -6 0 -6 7 0 7 -5 9 -12 5 -7 -5 -8 -3 -3
6 5 9 2 10 -14 5 -16 -5 -20 -3 -15 9 9 22 31 20 44 -5z m-1175 -29 c82 1 181
-5 240 -14 120 -19 118 -19 109 -5 -8 14 251 3 276 -12 9 -5 1 -6 -21 -2 -20
3 -45 0 -55 -6 -15 -8 0 -11 66 -12 47 0 108 -5 135 -9 33 -6 0 -7 -95 -3
-262 10 -1360 18 -1610 11 -135 -3 -310 -11 -390 -17 -80 -5 -179 -12 -220
-15 -41 -3 -7 3 75 14 83 10 177 19 210 20 33 1 78 5 100 9 23 4 -59 7 -190 5
l-230 -3 210 14 c116 7 275 16 355 20 80 4 147 10 150 12 3 3 172 2 375 -1
204 -4 433 -7 510 -6z m748 -27 c-7 -2 -19 -2 -25 0 -7 3 -2 5 12 5 14 0 19
-2 13 -5z m-2450 -20 c-13 -2 -35 -2 -50 0 -16 2 -5 4 22 4 28 0 40 -2 28 -4z
m-120 -10 c-23 -2 -64 -2 -90 0 -26 2 -7 3 42 3 50 0 71 -1 48 -3z m154 -39
c-3 -3 -12 -4 -19 -1 -8 3 -5 6 6 6 11 1 17 -2 13 -5z m-97 -14 c-14 -4 -38
-8 -55 -8 -29 1 -29 1 5 8 50 11 83 11 50 0z m-112 -17 c-10 -2 -26 -2 -35 0
-10 3 -2 5 17 5 19 0 27 -2 18 -5z m-215 -20 c-7 -2 -19 -2 -25 0 -7 3 -2 5
12 5 14 0 19 -2 13 -5z m50 0 c-7 -2 -19 -2 -25 0 -7 3 -2 5 12 5 14 0 19 -2
13 -5z m797 -2 c25 -5 81 -16 126 -25 373 -75 1033 -85 1549 -25 251 30 280
32 275 26 -3 -3 -88 -24 -189 -47 -320 -72 -663 -106 -966 -97 -284 9 -504 44
-713 113 -173 56 -203 77 -82 55z m-922 -8 c-10 -2 -26 -2 -35 0 -10 3 -2 5
17 5 19 0 27 -2 18 -5z m4999 -149 c-3 -3 -12 -4 -19 -1 -8 3 -5 6 6 6 11 1
17 -2 13 -5z m161 -31 c-10 -2 -26 -2 -35 0 -10 3 -2 5 17 5 19 0 27 -2 18 -5z
m65 -10 c-7 -2 -21 -2 -30 0 -10 3 -4 5 12 5 17 0 24 -2 18 -5z m50 -10 c-7
-2 -19 -2 -25 0 -7 3 -2 5 12 5 14 0 19 -2 13 -5z m54 -9 c-3 -3 -12 -4 -19
-1 -8 3 -5 6 6 6 11 1 17 -2 13 -5z m66 -11 c-7 -2 -19 -2 -25 0 -7 3 -2 5 12
5 14 0 19 -2 13 -5z m87 -13 c20 -6 21 -8 5 -8 -11 0 -31 4 -45 8 -20 6 -21 8
-5 8 11 0 31 -4 45 -8z"/>
<path d="M4691 8015 c0 -5 6 -19 14 -29 8 -11 15 -15 15 -10 0 6 -7 19 -15 30
-8 10 -14 15 -14 9z"/>
<path d="M8029 7553 c-13 -16 -12 -17 4 -4 16 13 21 21 13 21 -2 0 -10 -8 -17
-17z"/>
<path d="M6370 4876 c0 -2 7 -7 16 -10 8 -3 12 -2 9 4 -6 10 -25 14 -25 6z"/>
<path d="M3067 4541 c-4 -16 -12 -19 -47 -17 -32 3 -46 -2 -61 -17 l-19 -21
-1 30 c-2 48 -18 -41 -18 -103 l-1 -53 80 0 80 0 0 100 c0 99 -3 118 -13 81z"/>
<path d="M3365 4490 c-4 -6 7 -10 27 -10 25 0 29 3 18 10 -19 13 -37 13 -45 0z"/>
<path d="M3398 4472 c-39 -3 -64 -24 -53 -43 9 -14 111 -7 127 9 8 8 5 9 -12
5 -14 -4 -21 -2 -17 3 11 18 -8 29 -45 26z"/>
<path d="M3828 4423 c7 -3 16 -2 19 1 4 3 -2 6 -13 5 -11 0 -14 -3 -6 -6z"/>
<path d="M4953 5303 c15 -2 39 -2 55 0 15 2 2 4 -28 4 -30 0 -43 -2 -27 -4z"/>
<path d="M5067 5303 c18 -2 50 -2 70 0 21 2 7 4 -32 4 -38 0 -55 -2 -38 -4z"/>
<path d="M7109 5146 c-121 -32 -205 -144 -216 -288 -3 -46 -1 -82 5 -94 10
-17 11 -17 10 6 -4 68 6 75 11 9 9 -98 55 -196 115 -239 22 -17 45 -30 50 -30
6 0 5 4 -2 8 -7 5 25 6 71 4 105 -5 166 17 221 84 49 59 63 95 76 199 12 96 1
152 -46 226 -61 97 -182 144 -295 115z m315 -243 c4 -13 3 -23 -2 -23 -5 0
-12 12 -14 28 -3 15 -8 36 -12 47 -4 12 -1 10 7 -5 8 -14 18 -35 21 -47z"/>
<path d="M7560 5156 c0 -2 8 -10 18 -17 15 -13 16 -12 3 4 -13 16 -21 21 -21
13z"/>
<path d="M7203 4503 c9 -2 23 -2 30 0 6 3 -1 5 -18 5 -16 0 -22 -2 -12 -5z"/>
<path d="M1961 4545 c0 -11 4 -29 9 -40 l9 -20 0 20 c0 11 -4 29 -9 40 l-9 20
0 -20z"/>
<path d="M7844 5265 c-9 -21 -2 -26 13 -10 8 9 9 16 3 20 -6 3 -13 -1 -16 -10z"/>
<path d="M7888 5263 c6 -2 18 -2 25 0 6 3 1 5 -13 5 -14 0 -19 -2 -12 -5z"/>
<path d="M8025 5261 c142 -13 435 -21 396 -12 -19 5 -136 11 -260 14 -146 4
-194 3 -136 -2z"/>
<path d="M1283 5043 l-93 -4 0 -147 0 -147 108 6 c60 4 119 12 131 19 15 8 21
8 17 1 -9 -13 41 4 62 21 41 34 59 147 32 198 -25 46 -92 60 -257 53z m-66
-235 c-2 -29 -3 -6 -3 52 0 58 1 81 3 53 2 -29 2 -77 0 -105z m310 80 c-3 -7
-5 -2 -5 12 0 14 2 19 5 13 2 -7 2 -19 0 -25z"/>
<path d="M1480 4404 c0 -8 5 -12 10 -9 6 3 10 10 10 16 0 5 -4 9 -10 9 -5 0
-10 -7 -10 -16z"/>
<path d="M4640 4158 c0 -17 124 -18 140 -2 9 9 -7 12 -64 13 -55 1 -76 -2 -76
-11z"/>
<path d="M4813 4163 c9 -2 25 -2 35 0 9 3 1 5 -18 5 -19 0 -27 -2 -17 -5z"/>
<path d="M5208 4153 c7 -3 16 -2 19 1 4 3 -2 6 -13 5 -11 0 -14 -3 -6 -6z"/>
<path d="M5528 4153 c6 -2 18 -2 25 0 6 3 1 5 -13 5 -14 0 -19 -2 -12 -5z"/>
<path d="M4408 4143 c7 -3 16 -2 19 1 4 3 -2 6 -13 5 -11 0 -14 -3 -6 -6z"/>
<path d="M5818 4133 c7 -3 16 -2 19 1 4 3 -2 6 -13 5 -11 0 -14 -3 -6 -6z"/>
<path d="M5928 4133 c6 -2 18 -2 25 0 6 3 1 5 -13 5 -14 0 -19 -2 -12 -5z"/>
<path d="M6108 12033 c7 -3 16 -2 19 1 4 3 -2 6 -13 5 -11 0 -14 -3 -6 -6z"/>
<path d="M6218 12013 c7 -3 16 -2 19 1 4 3 -2 6 -13 5 -11 0 -14 -3 -6 -6z"/>
<path d="M7353 12003 c9 -2 25 -2 35 0 9 3 1 5 -18 5 -19 0 -27 -2 -17 -5z"/>
<path d="M6340 11985 c19 -7 42 -13 50 -13 8 0 -1 6 -20 13 -19 7 -42 13 -50
13 -8 0 1 -6 20 -13z"/>
<path d="M7424 11979 c19 -28 20 -40 3 -62 -11 -16 -18 -16 -65 -6 -50 12 -52
14 -52 47 l0 35 -20 -26 c-13 -16 -20 -40 -20 -67 0 -34 6 -48 34 -76 38 -38
67 -42 120 -20 40 17 66 51 66 86 0 32 -32 85 -61 100 -21 12 -21 11 -5 -11z"/>
<path d="M6687 11859 c7 -7 15 -10 18 -7 3 3 -2 9 -12 12 -14 6 -15 5 -6 -5z"/>
<path d="M3279 11836 c-84 -22 -229 -127 -229 -165 0 -9 17 -34 39 -55 l38
-38 36 31 c93 82 207 80 207 -3 0 -38 -94 -134 -240 -246 -152 -117 -156 -121
-169 -180 -17 -79 -16 -83 22 -76 17 3 136 19 262 36 127 17 239 34 251 39 16
7 22 24 31 82 12 77 7 94 -27 84 -25 -6 -200 -18 -200 -12 0 2 30 27 68 54 89
67 168 152 194 209 26 60 22 161 -7 195 -49 55 -168 74 -276 45z"/>
<path d="M3972 11670 c0 -14 2 -19 5 -12 2 6 2 18 0 25 -3 6 -5 1 -5 -13z"/>
<path d="M3962 11600 c0 -14 2 -19 5 -12 2 6 2 18 0 25 -3 6 -5 1 -5 -13z"/>
<path d="M5328 11593 c7 -3 16 -2 19 1 4 3 -2 6 -13 5 -11 0 -14 -3 -6 -6z"/>
<path d="M5288 11583 c7 -3 16 -2 19 1 4 3 -2 6 -13 5 -11 0 -14 -3 -6 -6z"/>
<path d="M5168 11573 c6 -2 18 -2 25 0 6 3 1 5 -13 5 -14 0 -19 -2 -12 -5z"/>
<path d="M3952 11545 c0 -16 2 -22 5 -12 2 9 2 23 0 30 -3 6 -5 -1 -5 -18z"/>
<path d="M5098 11563 c12 -2 30 -2 40 0 9 3 -1 5 -23 4 -22 0 -30 -2 -17 -4z"/>
<path d="M5018 11553 c12 -2 30 -2 40 0 9 3 -1 5 -23 4 -22 0 -30 -2 -17 -4z"/>
<path d="M4860 11540 c-55 -7 -55 -7 -10 -8 25 0 65 3 90 7 40 8 41 8 10 8
-19 0 -60 -3 -90 -7z"/>
<path d="M4660 11519 c-263 -32 -450 -49 -477 -44 -20 4 -33 2 -33 -5 0 -5 17
-10 37 -10 47 0 400 37 518 54 97 15 62 19 -45 5z"/>
<path d="M3942 11475 c0 -16 2 -22 5 -12 2 9 2 23 0 30 -3 6 -5 -1 -5 -18z"/>
<path d="M3931 11424 c0 -11 3 -14 6 -6 3 7 2 16 -1 19 -3 4 -6 -2 -5 -13z"/>
<path d="M1956 11380 c-106 -32 -151 -199 -81 -300 39 -57 79 -82 136 -88 148
-14 250 113 205 254 -35 112 -144 168 -260 134z m53 -39 c22 -14 16 -73 -10
-94 -40 -32 -99 -5 -99 44 0 43 70 75 109 50z"/>
<path d="M3911 11274 c0 -11 3 -14 6 -6 3 7 2 16 -1 19 -3 4 -6 -2 -5 -13z"/>
<path d="M4150 11261 c0 -5 7 -12 16 -15 14 -5 15 -4 4 9 -14 17 -20 19 -20 6z"/>
<path d="M3902 11220 c0 -14 2 -19 5 -12 2 6 2 18 0 25 -3 6 -5 1 -5 -13z"/>
<path d="M3880 11061 c0 -29 -26 -84 -52 -108 -47 -44 -110 -62 -288 -83 -95
-12 -257 -32 -359 -47 -102 -14 -213 -29 -246 -33 -55 -7 -56 -7 -17 -9 38 -1
383 41 437 53 11 3 83 12 160 21 176 20 232 31 277 55 20 10 39 17 42 14 3 -2
4 -1 1 2 -2 4 7 21 21 40 23 30 45 114 30 114 -3 0 -6 -8 -6 -19z"/>
<path d="M7805 11006 c10 -14 19 -26 22 -26 7 0 -17 39 -28 46 -6 3 -3 -5 6
-20z"/>
<path d="M3951 10974 c0 -11 3 -14 6 -6 3 7 2 16 -1 19 -3 4 -6 -2 -5 -13z"/>
<path d="M7830 10966 c0 -2 8 -10 18 -17 15 -13 16 -12 3 4 -13 16 -21 21 -21
13z"/>
<path d="M3825 10899 c-4 -6 -5 -12 -2 -15 2 -3 7 2 10 11 7 17 1 20 -8 4z"/>
<path d="M2350 10843 c-19 -27 -25 -40 -14 -31 18 16 59 78 51 78 -2 0 -19
-21 -37 -47z"/>
<path d="M7930 10810 c6 -11 13 -20 16 -20 2 0 0 9 -6 20 -6 11 -13 20 -16 20
-2 0 0 -9 6 -20z"/>
<path d="M2280 10745 c-17 -25 -29 -45 -26 -45 3 0 19 20 36 45 17 25 29 45
26 45 -3 0 -19 -20 -36 -45z"/>
<path d="M2458 10783 c7 -3 16 -2 19 1 4 3 -2 6 -13 5 -11 0 -14 -3 -6 -6z"/>
<path d="M5650 10775 c-99 -13 -213 -36 -207 -42 2 -2 58 6 123 17 429 75 859
-1 1178 -207 320 -207 475 -630 370 -1013 -25 -88 -46 -140 -55 -134 -5 3 -6
-1 -3 -9 3 -8 -2 -14 -11 -14 -18 0 -18 0 -4 31 7 14 16 23 22 19 6 -3 7 -1 4
4 -7 11 21 104 33 113 9 7 10 22 16 197 5 124 3 165 -11 220 -15 60 -34 110
-35 92 0 -4 9 -42 20 -85 29 -115 27 -273 -4 -396 -38 -149 -101 -261 -210
-376 -80 -84 -134 -122 -269 -193 -62 -32 -109 -59 -106 -59 13 0 133 51 165
71 27 17 38 19 47 10 9 -9 8 -11 -7 -5 -12 5 -17 4 -13 -3 7 -11 -116 -71
-191 -94 -23 -7 -40 -14 -38 -16 16 -16 283 98 272 116 -7 11 23 53 34 46 4
-2 21 5 36 17 18 14 24 16 15 5 -7 -9 -29 -26 -48 -38 -19 -12 -32 -24 -29
-27 9 -8 77 41 145 104 116 107 197 245 242 414 20 72 23 109 23 240 0 191
-13 249 -95 417 -91 186 -215 310 -412 413 -292 152 -648 211 -997 165z m1376
-1422 c-5 -15 -4 -15 9 1 8 11 15 15 15 9 0 -16 -84 -138 -91 -133 -4 3 -17
-4 -30 -15 l-22 -20 23 33 c27 36 32 40 23 15 -6 -16 -5 -16 10 -4 11 9 15 21
11 33 -4 14 0 21 15 25 12 3 21 10 21 15 0 5 -4 6 -10 3 -5 -3 -2 8 8 24 19
34 27 40 18 14z m-96 -166 c0 -2 -15 -16 -32 -33 l-33 -29 29 33 c28 30 36 37
36 29z m-70 -71 c0 -3 -4 -8 -10 -11 -5 -3 -10 -1 -10 4 0 6 5 11 10 11 6 0
10 -2 10 -4z"/>
<path d="M7962 10753 c17 -41 30 -53 17 -15 -6 18 -15 35 -20 38 -5 3 -4 -7 3
-23z"/>
<path d="M2404 10752 c-12 -10 -29 -34 -38 -53 -9 -19 -11 -25 -4 -15 7 11 26
34 42 53 31 37 31 41 0 15z"/>
<path d="M5345 10714 c-79 -24 -187 -66 -181 -71 2 -2 13 0 24 6 10 5 70 26
133 45 63 19 105 35 94 35 -11 0 -42 -7 -70 -15z"/>
<path d="M8035 10589 c61 -158 112 -339 120 -421 1 -18 11 -100 20 -183 18
-157 16 -440 -4 -515 -5 -19 -12 -48 -16 -65 l-8 -30 -8 25 c-6 20 -7 17 -6
-17 1 -41 11 -57 19 -31 9 26 14 -9 6 -39 -10 -39 -33 -46 -24 -7 4 14 3 23
-2 20 -9 -5 -25 -69 -27 -106 0 -8 -4 -21 -9 -28 -4 -7 -8 -29 -9 -47 0 -19
-4 -32 -8 -29 -5 2 -13 -15 -19 -38 -21 -79 -36 -118 -44 -111 -4 4 -4 0 -1
-9 4 -9 2 -19 -4 -23 -6 -3 -11 -14 -11 -24 0 -74 -228 -354 -405 -497 -213
-173 -508 -308 -795 -363 -58 -11 -116 -22 -130 -25 -14 -3 2 -3 34 0 151 12
422 93 577 172 328 168 591 416 734 693 152 297 206 517 207 854 1 295 -53
562 -169 835 -61 143 -72 149 -18 9z"/>
<path d="M2233 10678 c-15 -20 -25 -38 -20 -38 3 0 12 11 21 25 17 26 16 35
-1 13z"/>
<path d="M5120 10630 c-8 -5 -10 -10 -5 -10 6 0 17 5 25 10 8 5 11 10 5 10 -5
0 -17 -5 -25 -10z"/>
<path d="M5070 10610 c-8 -5 -10 -10 -5 -10 6 0 17 5 25 10 8 5 11 10 5 10 -5
0 -17 -5 -25 -10z"/>
<path d="M5020 10590 c-8 -5 -10 -10 -5 -10 6 0 17 5 25 10 8 5 11 10 5 10 -5
0 -17 -5 -25 -10z"/>
<path d="M4970 10570 c-8 -5 -10 -10 -5 -10 6 0 17 5 25 10 8 5 11 10 5 10 -5
0 -17 -5 -25 -10z"/>
<path d="M4893 10530 c-29 -17 -53 -33 -53 -36 0 -6 88 42 105 57 16 16 1 9
-52 -21z"/>
<path d="M4784 10464 c-18 -14 -18 -15 4 -4 12 6 22 13 22 15 0 8 -5 6 -26
-11z"/>
<path d="M2274 10376 c-91 -39 -95 -43 -164 -146 -31 -47 -91 -136 -134 -198
-42 -63 -76 -121 -74 -130 4 -22 94 -82 123 -82 17 0 36 18 71 65 47 64 64 78
64 53 0 -36 59 -453 86 -611 8 -45 2 -46 161 29 62 29 113 59 113 66 0 32
-162 973 -168 979 -4 3 -39 -8 -78 -25z"/>
<path d="M4139 10233 c-13 -16 -12 -17 4 -4 9 7 17 15 17 17 0 8 -8 3 -21 -13z"/>
<path d="M7019 10168 c22 -57 50 -112 50 -102 1 13 -48 124 -54 124 -3 0 -1
-10 4 -22z"/>
<path d="M3991 10098 c-18 -17 -37 -41 -43 -52 -6 -12 10 0 36 27 41 43 52 57
43 57 -2 0 -18 -14 -36 -32z"/>
<path d="M4063 10113 c9 -2 25 -2 35 0 9 3 1 5 -18 5 -19 0 -27 -2 -17 -5z"/>
<path d="M7501 10064 c0 -11 3 -14 6 -6 3 7 2 16 -1 19 -3 4 -6 -2 -5 -13z"/>
<path d="M8412 10070 c0 -8 4 -26 8 -40 6 -20 8 -21 8 -5 0 11 -3 29 -8 40 -5
12 -8 14 -8 5z"/>
<path d="M7511 10024 c0 -11 3 -14 6 -6 3 7 2 16 -1 19 -3 4 -6 -2 -5 -13z"/>
<path d="M7522 9980 c0 -14 2 -19 5 -12 2 6 2 18 0 25 -3 6 -5 1 -5 -13z"/>
<path d="M7581 9985 c1 -19 18 -51 18 -35 0 8 -4 22 -9 30 -5 8 -9 11 -9 5z"/>
<path d="M3913 9930 c0 -25 2 -35 4 -22 2 12 2 32 0 45 -2 12 -4 2 -4 -23z"/>
<path d="M8442 9945 c0 -11 4 -31 8 -45 6 -20 8 -21 8 -5 0 11 -4 31 -8 45 -6
20 -8 21 -8 5z"/>
<path d="M7532 9920 c0 -14 2 -19 5 -12 2 6 2 18 0 25 -3 6 -5 1 -5 -13z"/>
<path d="M7601 9914 c0 -11 3 -14 6 -6 3 7 2 16 -1 19 -3 4 -6 -2 -5 -13z"/>
<path d="M4200 9904 c-23 -26 -98 -66 -117 -61 -10 3 -29 9 -43 13 -22 6 -23
5 -11 -10 12 -14 12 -16 -4 -10 -13 5 -16 4 -10 -5 10 -17 90 -5 130 19 30 19
84 70 73 70 -3 0 -11 -7 -18 -16z"/>
<path d="M7622 9840 c0 -14 2 -19 5 -12 2 6 2 18 0 25 -3 6 -5 1 -5 -13z"/>
<path d="M5130 9789 l-55 -51 52 42 c46 37 71 61 61 60 -2 0 -28 -23 -58 -51z"/>
<path d="M8472 9785 c0 -16 2 -22 5 -12 2 9 2 23 0 30 -3 6 -5 -1 -5 -18z"/>
<path d="M7532 9635 c0 -16 2 -22 5 -12 2 9 2 23 0 30 -3 6 -5 -1 -5 -18z"/>
<path d="M7521 9564 c0 -11 3 -14 6 -6 3 7 2 16 -1 19 -3 4 -6 -2 -5 -13z"/>
<path d="M7503 9494 c-6 -27 -10 -51 -8 -52 6 -6 27 78 23 90 -2 6 -9 -11 -15
-38z"/>
<path d="M3501 9463 c-1 -6 -4 -20 -7 -30 -5 -17 -5 -17 6 0 6 10 9 23 6 30
-3 9 -5 9 -5 0z"/>
<path d="M7476 9415 c-9 -26 -7 -32 5 -12 6 10 9 21 6 23 -2 3 -7 -2 -11 -11z"/>
<path d="M3052 9311 c-22 -70 -72 -103 -466 -298 -204 -101 -445 -222 -536
-268 -91 -47 -190 -92 -220 -100 l-55 -14 80 6 c44 3 85 10 90 16 7 7 4 8 -10
3 -43 -15 5 14 127 78 69 36 133 66 142 66 9 0 16 5 16 11 0 5 5 7 10 4 6 -3
10 -2 10 4 0 13 55 42 64 34 3 -4 6 -2 6 4 0 6 15 16 33 23 17 7 67 30 110 51
42 21 77 36 77 32 0 -3 6 0 13 6 8 6 18 7 22 3 5 -4 5 -2 2 4 -4 7 0 15 9 18
23 9 26 8 19 -6 -4 -7 2 -4 12 8 28 32 62 46 105 46 21 -1 38 4 38 10 0 6 -8
7 -17 3 -31 -11 -1 10 62 45 55 31 58 31 37 8 -12 -13 -19 -28 -15 -32 5 -4
-5 -4 -21 0 -21 5 -27 4 -22 -4 5 -8 1 -10 -9 -6 -11 5 -14 2 -9 -9 5 -15 44
-20 44 -6 0 4 8 9 18 12 9 2 26 8 37 12 20 7 20 6 1 -9 -11 -9 -16 -16 -10
-16 18 0 30 15 31 39 2 24 21 44 34 35 4 -2 9 1 11 6 2 6 13 2 25 -10 28 -26
31 -25 108 8 69 29 86 48 33 37 -32 -7 -32 -6 -13 10 20 16 19 16 -5 9 -14 -3
-29 -10 -33 -14 -5 -4 -17 -5 -28 -3 -15 4 -17 8 -8 19 6 8 18 14 25 14 10 0
14 10 12 29 -1 16 3 35 9 43 11 13 28 78 20 78 -2 0 -9 -18 -15 -39z m-65
-133 c-5 -28 -27 -36 -27 -10 0 20 8 32 22 32 4 0 6 -10 5 -22z m-77 -28 c-8
-5 -19 -10 -25 -10 -5 0 -3 5 5 10 8 5 20 10 25 10 6 0 3 -5 -5 -10z m90 -10
c-8 -5 -19 -10 -25 -10 -5 0 -3 5 5 10 8 5 20 10 25 10 6 0 3 -5 -5 -10z
m-133 -32 c-3 -8 -6 -5 -6 6 -1 11 2 17 5 13 3 -3 4 -12 1 -19z m-22 -18 c-3
-5 -12 -10 -18 -10 -7 0 -6 4 3 10 19 12 23 12 15 0z"/>
<path d="M8677 9155 c-4 -93 -10 -195 -12 -225 -3 -40 -2 -48 4 -30 5 14 9 44
10 68 1 24 4 41 9 38 6 -4 6 242 -1 299 -2 11 -6 -56 -10 -150z"/>
<path d="M3015 9180 c3 -5 8 -10 11 -10 2 0 4 5 4 10 0 6 -5 10 -11 10 -5 0
-7 -4 -4 -10z"/>
<path d="M7128 9096 c-102 -114 -275 -229 -433 -287 -40 -15 -43 -18 -15 -13
51 9 224 97 289 147 77 59 155 132 192 178 46 58 31 47 -33 -25z"/>
<path d="M7184 9083 c-15 -20 -23 -33 -16 -29 13 8 56 66 49 66 -3 0 -17 -17
-33 -37z"/>
<path d="M3405 9049 c-4 -5 -4 -21 -1 -34 6 -25 -18 -95 -34 -95 -6 0 -10 -5
-10 -11 0 -7 7 -8 18 -4 9 4 40 11 67 15 28 4 38 8 23 9 -22 1 -29 7 -33 29
-4 15 -10 34 -15 43 -5 9 -6 26 -3 38 6 22 -1 28 -12 10z"/>
<path d="M3761 9018 c0 -13 4 -32 9 -43 7 -15 9 -10 9 23 1 23 -3 42 -9 42 -5
0 -10 -10 -9 -22z"/>
<path d="M3481 8994 c0 -11 3 -14 6 -6 3 7 2 16 -1 19 -3 4 -6 -2 -5 -13z"/>
<path d="M6290 8976 c0 -2 9 -6 20 -9 11 -3 18 -1 14 4 -5 9 -34 13 -34 5z"/>
<path d="M6258 8963 c7 -3 16 -2 19 1 4 3 -2 6 -13 5 -11 0 -14 -3 -6 -6z"/>
<path d="M6188 8953 c6 -2 18 -2 25 0 6 3 1 5 -13 5 -14 0 -19 -2 -12 -5z"/>
<path d="M8690 8951 c0 -6 5 -13 10 -16 6 -3 10 1 10 9 0 9 -4 16 -10 16 -5 0
-10 -4 -10 -9z"/>
<path d="M6425 8920 c-13 -6 -15 -9 -5 -9 8 0 22 4 30 9 18 12 2 12 -25 0z"/>
<path d="M8687 8859 c4 -13 8 -18 11 -10 2 7 -1 18 -6 23 -8 8 -9 4 -5 -13z"/>
<path d="M8650 8809 c0 -5 5 -7 10 -4 6 3 10 8 10 11 0 2 -4 4 -10 4 -5 0 -10
-5 -10 -11z"/>
<path d="M8762 8745 c0 -16 2 -22 5 -12 2 9 2 23 0 30 -3 6 -5 -1 -5 -18z"/>
<path d="M1550 8425 c-54 -25 -89 -64 -105 -120 -20 -66 -11 -124 29 -183 80
-118 240 -122 330 -9 28 34 31 46 31 105 0 60 -4 72 -33 115 -64 92 -167 130
-252 92z m62 -52 c11 -14 13 -26 6 -51 -5 -18 -13 -30 -18 -27 -5 3 -11 1 -15
-5 -18 -28 -75 7 -75 46 0 45 72 71 102 37z m148 -207 c0 -2 -8 -10 -17 -17
-16 -13 -17 -12 -4 4 13 16 21 21 21 13z"/>
<path d="M2025 8399 c-4 -6 -5 -12 -2 -15 2 -3 7 2 10 11 7 17 1 20 -8 4z"/>
<path d="M3105 8396 c-147 -47 -323 -183 -418 -324 -44 -65 -52 -89 -37 -108
16 -18 175 -68 194 -61 9 4 26 28 40 55 30 59 91 116 160 148 62 29 100 30
126 4 48 -48 10 -129 -85 -185 -25 -14 -45 -32 -45 -38 0 -16 51 -98 72 -115
12 -10 27 -6 82 23 76 39 145 46 196 20 71 -37 66 -125 -12 -190 -58 -49 -142
-69 -231 -53 -37 7 -62 7 -68 1 -15 -15 -99 -214 -99 -234 0 -37 56 -54 175
-54 136 0 212 22 340 97 112 66 202 153 240 233 26 53 29 71 29 151 0 77 -3
98 -25 140 -45 87 -149 144 -262 144 -41 0 -48 3 -43 16 55 142 10 280 -106
329 -45 18 -166 19 -223 1z m288 -893 c-5 -15 -4 -16 8 -7 22 17 49 24 49 14
0 -6 -7 -10 -15 -10 -8 0 -14 -6 -12 -12 3 -16 -149 -90 -176 -86 -18 3 -18 4
0 24 13 15 128 86 150 93 1 1 -1 -7 -4 -16z"/>
<path d="M3260 7420 c-9 -6 -10 -10 -3 -10 6 0 15 5 18 10 8 12 4 12 -15 0z"/>
<path d="M4930 8303 c0 -5 12 -20 28 -34 l27 -24 -25 30 c-14 17 -26 32 -27
34 -2 2 -3 0 -3 -6z"/>
<path d="M7659 8253 c-13 -16 -12 -17 4 -4 9 7 17 15 17 17 0 8 -8 3 -21 -13z"/>
<path d="M7619 8223 c-13 -16 -12 -17 4 -4 9 7 17 15 17 17 0 8 -8 3 -21 -13z"/>
<path d="M7535 8159 c-52 -40 -57 -46 -17 -23 29 16 73 55 61 53 -2 0 -22 -14
-44 -30z"/>
<path d="M4940 8097 c0 -2 15 -16 33 -33 l32 -29 -29 33 c-28 30 -36 37 -36
29z"/>
<path d="M7424 8084 c-18 -14 -18 -15 4 -4 12 6 22 13 22 15 0 8 -5 6 -26 -11z"/>
<path d="M5159 8057 c26 -28 31 -32 31 -19 0 4 -13 16 -28 26 l-27 19 24 -26z"/>
<path d="M7328 8034 c-38 -20 -36 -28 2 -9 17 9 30 18 30 20 0 7 -1 6 -32 -11z"/>
<path d="M8802 7980 c0 -14 2 -19 5 -12 2 6 2 18 0 25 -3 6 -5 1 -5 -13z"/>
<path d="M8776 7854 c-9 -42 -15 -79 -12 -81 2 -3 12 30 21 72 10 42 15 78 13
81 -3 2 -12 -30 -22 -72z"/>
<path d="M5540 7916 c0 -2 7 -7 16 -10 8 -3 12 -2 9 4 -6 10 -25 14 -25 6z"/>
<path d="M8751 7744 c0 -11 3 -14 6 -6 3 7 2 16 -1 19 -3 4 -6 -2 -5 -13z"/>
<path d="M8706 7595 c-20 -69 -39 -133 -42 -143 -2 -9 4 1 14 23 21 46 76 235
70 241 -3 2 -21 -52 -42 -121z"/>
<path d="M2041 7635 c1 -19 18 -51 18 -35 0 8 -4 22 -9 30 -5 8 -9 11 -9 5z"/>
<path d="M2061 7564 c0 -11 3 -14 6 -6 3 7 2 16 -1 19 -3 4 -6 -2 -5 -13z"/>
<path d="M4268 7327 c-128 -93 -168 -125 -113 -91 80 49 265 189 243 183 -2 0
-60 -42 -130 -92z"/>
<path d="M8627 7358 c-28 -66 -37 -105 -12 -53 25 53 45 108 42 112 -2 2 -16
-25 -30 -59z"/>
<path d="M4444 7375 c-18 -14 -18 -14 9 -15 15 0 27 4 27 9 0 18 -17 20 -36 6z"/>
<path d="M5515 7339 c-22 -12 -80 -48 -130 -80 -111 -71 -268 -169 -530 -328
-110 -67 -207 -131 -217 -141 -23 -28 -96 -162 -103 -191 l-6 -25 253 -38
c139 -21 255 -40 257 -42 2 -1 -14 -34 -34 -71 -60 -107 -67 -123 -62 -136 7
-18 363 -73 380 -59 6 6 34 56 62 111 l49 101 71 -6 70 -6 75 151 c41 82 71
153 68 156 -3 3 -38 9 -77 12 -39 3 -74 9 -76 13 -3 4 22 52 54 106 204 343
253 430 254 453 2 24 -2 26 -53 33 -30 3 -102 6 -160 7 -90 1 -111 -2 -145
-20z m234 -25 c33 -4 61 -10 61 -14 0 -4 -37 -68 -82 -141 -45 -74 -97 -162
-116 -196 -20 -35 -52 -83 -73 -108 -44 -53 -55 -81 -40 -99 6 -7 9 -15 6 -18
-3 -3 28 -11 69 -17 l74 -12 -45 -87 c-25 -48 -48 -91 -52 -95 -5 -4 -38 -3
-75 4 -36 7 -63 16 -59 20 5 4 34 2 66 -6 54 -12 58 -12 67 6 8 15 7 19 -5 19
-8 0 -15 -4 -15 -9 0 -15 -80 6 -94 24 -12 16 -15 15 -39 -16 -38 -51 -103
-170 -111 -204 l-7 -30 20 33 c29 45 45 40 19 -5 -12 -21 -23 -40 -24 -42 -2
-1 -49 4 -106 13 -57 9 -118 19 -135 22 l-33 5 37 67 c20 37 51 90 70 118 39
60 41 70 11 50 -20 -13 -38 -12 -143 4 -123 19 -343 64 -350 72 -7 6 12 67 28
92 14 21 85 68 252 166 50 29 117 69 150 90 33 21 148 93 255 161 107 67 208
126 225 130 40 9 118 10 194 3z m-232 -536 c-3 -8 -6 -5 -6 6 -1 11 2 17 5 13
3 -3 4 -12 1 -19z"/>
<path d="M5359 7041 c-13 -10 -44 -28 -68 -40 -83 -43 -306 -189 -298 -197 1
-2 45 -12 97 -24 52 -11 105 -22 118 -25 14 -3 22 -1 22 7 0 12 50 105 134
251 31 52 30 56 -5 28z m-59 -86 c0 -8 -90 -143 -106 -160 -12 -11 -26 -14
-52 -9 -63 11 -68 18 -31 46 19 13 66 48 104 76 65 48 85 59 85 47z"/>
<path d="M4838 6693 c7 -3 16 -2 19 1 4 3 -2 6 -13 5 -11 0 -14 -3 -6 -6z"/>
<path d="M4740 6669 c0 -5 9 -9 20 -9 11 0 20 2 20 4 0 2 -9 6 -20 9 -11 3
-20 1 -20 -4z"/>
<path d="M4796 6665 c-3 -8 21 -18 72 -28 102 -21 179 -31 170 -22 -4 4 -33
11 -65 15 l-58 7 60 2 c33 1 66 5 73 10 13 8 -9 13 -108 26 -31 4 -30 3 10
-10 l45 -15 -50 6 c-27 3 -71 9 -97 13 -34 5 -48 4 -52 -4z"/>
<path d="M5083 6643 c9 -2 23 -2 30 0 6 3 -1 5 -18 5 -16 0 -22 -2 -12 -5z"/>
<path d="M5078 6603 c6 -2 18 -2 25 0 6 3 1 5 -13 5 -14 0 -19 -2 -12 -5z"/>
<path d="M4397 7334 c4 -10 0 -12 -13 -7 -14 5 -16 3 -11 -11 6 -14 3 -16 -13
-11 -11 4 -20 2 -20 -4 0 -6 -9 -11 -20 -11 -11 0 -20 -4 -20 -9 0 -5 -35 -31
-77 -59 -43 -28 -87 -58 -98 -66 -11 -9 -42 -32 -70 -53 -55 -41 -69 -56 -55
-61 17 -6 11 -22 -12 -32 -18 -7 -19 -9 -5 -9 24 -1 22 -21 -3 -21 -11 0 -20
-5 -20 -11 0 -5 -4 -8 -10 -4 -5 3 -17 1 -27 -5 -10 -5 -30 -14 -46 -20 -15
-5 -32 -20 -37 -32 -10 -22 -10 -21 -7 5 l4 27 -32 -24 c-18 -14 -38 -27 -45
-28 -8 -2 -21 -10 -30 -18 -51 -46 -72 -60 -82 -54 -8 5 -9 1 -5 -10 4 -10 7
-22 7 -28 0 -6 7 -8 15 -4 25 9 17 -10 -10 -22 -14 -6 -25 -16 -25 -22 0 -15
17 -12 23 4 3 8 23 18 43 22 29 5 40 3 50 -10 14 -20 27 -6 18 18 -3 9 -2 16
4 16 5 0 12 9 15 21 4 14 10 18 19 14 10 -6 11 -5 1 6 -19 20 -16 29 12 29 15
0 25 6 25 14 0 7 8 16 19 19 14 3 17 0 14 -14 -4 -14 0 -19 15 -19 11 0 20 6
19 13 -1 32 4 51 11 41 4 -6 17 -14 30 -18 16 -6 22 -3 22 8 0 9 7 16 15 16 8
0 15 -7 15 -15 0 -8 7 -15 15 -15 17 0 65 46 65 63 0 8 3 8 9 -1 7 -11 9 -11
14 2 4 10 -1 16 -16 19 -19 3 -18 5 13 20 19 8 42 25 50 36 10 15 26 21 55 22
31 0 36 2 20 9 -14 6 -16 9 -5 10 8 2 19 2 24 1 5 -1 3 6 -5 15 -12 16 -12 17
4 11 9 -3 17 -2 17 3 0 6 -6 10 -12 10 -7 0 6 9 29 21 31 15 43 27 45 47 3 23
8 27 42 30 24 2 43 -2 48 -10 7 -9 8 -8 4 5 -4 13 0 20 14 24 11 3 26 18 34
34 14 27 13 29 -15 41 -16 7 -29 20 -29 29 0 9 -7 19 -14 22 -10 4 -13 1 -9
-9z m-21 -59 c-16 -9 -37 -13 -45 -9 -12 5 -8 9 14 14 51 13 61 11 31 -5z
m-376 -345 c0 -5 -2 -10 -4 -10 -3 0 -8 5 -11 10 -3 6 -1 10 4 10 6 0 11 -4
11 -10z m-187 -57 c-7 -2 -21 -2 -30 0 -10 3 -4 5 12 5 17 0 24 -2 18 -5z"/>
<path d="M8580 7249 c-7 -11 -10 -23 -7 -25 2 -2 9 7 15 21 14 30 7 33 -8 4z"/>
<path d="M4085 7194 l-30 -26 33 22 c17 12 32 23 32 26 0 7 -4 5 -35 -22z"/>
<path d="M8542 7185 c-6 -14 -10 -25 -8 -25 2 0 11 11 20 25 9 14 13 25 8 25
-5 0 -14 -11 -20 -25z"/>
<path d="M4444 7168 l-29 -33 33 29 c30 28 37 36 29 36 -2 0 -16 -15 -33 -32z"/>
<path d="M4015 7144 l-30 -26 33 22 c17 12 32 23 32 26 0 7 -4 5 -35 -22z"/>
<path d="M8516 7133 c-6 -14 -5 -15 5 -6 7 7 10 15 7 18 -3 3 -9 -2 -12 -12z"/>
<path d="M3945 7094 l-30 -26 33 22 c17 12 32 23 32 26 0 7 -4 5 -35 -22z"/>
<path d="M3800 6989 c-35 -31 -35 -31 -3 -9 18 11 35 25 38 30 10 16 2 11 -35
-21z"/>
<path d="M3580 6824 c-236 -181 -291 -221 -352 -255 -54 -29 -51 -42 2 -14 17
9 30 12 30 8 0 -13 -70 -54 -80 -48 -6 4 -10 2 -10 -4 0 -5 6 -12 13 -15 6 -3
1 -3 -13 0 -14 4 -28 11 -31 16 -4 7 -9 6 -13 0 -7 -12 23 -32 47 -32 7 0 23
11 35 25 12 14 27 25 33 25 8 0 6 -7 -4 -17 -14 -17 -13 -18 16 -19 18 -1 24
1 14 3 -14 4 -16 8 -6 19 9 11 9 14 0 14 -7 0 -9 5 -6 10 4 6 10 8 15 5 4 -3
6 4 3 14 -5 21 27 46 43 33 5 -4 6 -3 2 2 -7 9 73 76 262 218 114 86 190 148
180 147 -3 0 -84 -61 -180 -135z"/>
<path d="M8475 6854 c-9 -14 -15 -27 -13 -30 2 -2 12 10 22 26 21 37 15 40 -9
4z"/>
<path d="M3857 6839 c7 -7 15 -10 18 -7 3 3 -2 9 -12 12 -14 6 -15 5 -6 -5z"/>
<path d="M3598 6755 c-6 -13 -16 -22 -22 -18 -6 3 -7 2 -3 -2 14 -16 36 -13
42 6 4 10 11 19 16 19 6 0 7 5 4 10 -10 17 -25 11 -37 -15z"/>
<path d="M3839 6683 c-13 -16 -12 -17 4 -4 9 7 17 15 17 17 0 8 -8 3 -21 -13z"/>
<path d="M6241 6673 c-10 -26 -10 -27 4 -9 8 11 15 23 15 28 0 15 -7 8 -19
-19z"/>
<path d="M6211 6613 c-10 -26 -10 -27 4 -9 8 11 15 23 15 28 0 15 -7 8 -19
-19z"/>
<path d="M3286 6571 c-3 -4 4 -7 14 -6 27 2 33 10 10 12 -11 1 -22 -2 -24 -6z"/>
<path d="M6186 6563 c-6 -14 -5 -15 5 -6 7 7 10 15 7 18 -3 3 -9 -2 -12 -12z"/>
<path d="M3033 6554 c16 -9 54 -17 85 -19 l57 -4 -50 8 c-27 5 -63 14 -78 20
-40 16 -47 13 -14 -5z"/>
<path d="M3533 6563 c15 -2 39 -2 55 0 15 2 2 4 -28 4 -30 0 -43 -2 -27 -4z"/>
<path d="M6110 6424 c-17 -31 -29 -58 -26 -61 2 -3 19 22 35 56 39 76 33 80
-9 5z"/>
<path d="M3093 6462 c-26 -4 -30 -20 -8 -28 8 -4 15 -12 15 -20 0 -8 9 -14 21
-14 11 0 29 -5 40 -10 13 -7 19 -7 19 0 0 5 4 10 10 10 5 0 9 -8 8 -17 -3 -42
3 -63 18 -63 8 0 12 5 9 10 -9 14 29 12 43 -2 9 -9 12 -8 12 4 0 9 -4 20 -10
23 -17 11 -11 25 11 25 12 0 18 4 13 11 -5 8 4 10 30 7 28 -3 35 -1 31 10 -3
7 -5 17 -5 22 0 12 -61 24 -69 13 -3 -5 -28 -7 -54 -5 -36 3 -47 8 -43 18 4
10 -3 14 -22 14 -19 0 -23 -3 -14 -9 11 -6 9 -9 -7 -14 -11 -2 -21 0 -23 7 -2
6 -13 10 -25 8z m107 -42 c0 -5 -18 -10 -40 -10 -22 0 -40 5 -40 10 0 6 18 10
40 10 22 0 40 -4 40 -10z"/>
<path d="M3446 6458 c3 -4 11 -5 19 -1 21 7 19 12 -4 10 -11 0 -18 -5 -15 -9z"/>
<path d="M3479 6403 c-13 -16 -12 -17 4 -4 9 7 17 15 17 17 0 8 -8 3 -21 -13z"/>
<path d="M5975 6168 c-217 -407 -311 -498 -495 -484 -59 5 -61 4 -25 -5 22 -6
67 -8 100 -4 33 3 69 6 80 6 16 0 17 2 5 9 -9 6 -10 10 -3 10 6 0 15 -5 18
-10 8 -14 25 -3 25 16 0 9 28 43 63 77 54 55 169 229 190 289 4 12 13 16 24
12 15 -5 16 -4 3 5 -13 9 -12 11 5 12 11 0 15 3 8 5 -8 4 2 32 29 87 23 45 50
99 60 120 10 20 17 37 14 37 -2 0 -48 -82 -101 -182z"/>
<path d="M3780 6070 c14 -11 59 -31 100 -45 87 -29 370 -98 377 -92 2 3 -58
19 -134 37 -175 41 -291 77 -325 101 -35 25 -50 24 -18 -1z"/>
<path d="M3742 6020 c0 -14 2 -19 5 -12 2 6 2 18 0 25 -3 6 -5 1 -5 -13z"/>
<path d="M5893 5935 c0 -8 4 -12 9 -9 5 3 6 10 3 15 -9 13 -12 11 -12 -6z"/>
<path d="M4278 5923 c7 -3 16 -2 19 1 4 3 -2 6 -13 5 -11 0 -14 -3 -6 -6z"/>
<path d="M4415 5889 c61 -16 117 -28 125 -28 8 1 -34 14 -95 30 -60 16 -117
28 -125 28 -8 -1 35 -14 95 -30z"/>
<path d="M4568 5853 c6 -2 18 -2 25 0 6 3 1 5 -13 5 -14 0 -19 -2 -12 -5z"/>
<path d="M4618 5843 c6 -2 18 -2 25 0 6 3 1 5 -13 5 -14 0 -19 -2 -12 -5z"/>
<path d="M4673 5833 c9 -2 23 -2 30 0 6 3 -1 5 -18 5 -16 0 -22 -2 -12 -5z"/>
<path d="M4765 5814 c28 -7 59 -13 70 -13 11 0 -5 7 -35 14 -72 18 -100 17
-35 -1z"/>
<path d="M4868 5793 c6 -2 18 -2 25 0 6 3 1 5 -13 5 -14 0 -19 -2 -12 -5z"/>
<path d="M4918 5783 c6 -2 18 -2 25 0 6 3 1 5 -13 5 -14 0 -19 -2 -12 -5z"/>
<path d="M5010 5764 c30 -7 78 -16 105 -18 31 -4 16 2 -40 14 -103 22 -147 25
-65 4z"/>
<path d="M5215 5725 c28 -7 61 -13 75 -13 14 0 -2 6 -35 14 -76 17 -107 16
-40 -1z"/>
<path d="M5340 5700 c14 -4 36 -8 50 -8 22 0 22 1 -5 8 -16 4 -39 8 -50 8 -16
0 -15 -2 5 -8z"/>
<path d="M4090 5510 c8 -5 22 -9 30 -9 10 0 8 3 -5 9 -27 12 -43 12 -25 0z"/>
</g>
</svg>
